M48
; DRILL file {KiCad 9.0.6} date 2025-12-12T19:05:50-0500
; FORMAT={-:-/ absolute / metric / decimal}
; #@! TF.CreationDate,2025-12-12T19:05:50-05:00
; #@! TF.GenerationSoftware,Kicad,Pcbnew,9.0.6
; #@! TF.FileFunction,MixedPlating,1,2
FMAT,2
METRIC
; #@! TA.AperFunction,Plated,PTH,ComponentDrill
T1C0.889
; #@! TA.AperFunction,Plated,PTH,ComponentDrill
T2C1.000
; #@! TA.AperFunction,Plated,PTH,ComponentDrill
T3C1.500
; #@! TA.AperFunction,NonPlated,NPTH,ComponentDrill
T4C1.700
; #@! TA.AperFunction,NonPlated,NPTH,ComponentDrill
T5C4.000
%
G90
G05
T1
X135.065Y-72.515
X135.065Y-75.055
X135.065Y-77.595
X135.065Y-80.135
X135.065Y-82.675
X135.065Y-85.215
X135.065Y-87.755
X150.305Y-72.515
X150.305Y-75.055
X150.305Y-77.595
X150.305Y-80.135
X150.305Y-82.675
X150.305Y-85.215
X150.305Y-87.755
T2
X179.9Y-93.2
X179.9Y-95.74
X179.9Y-98.28
X179.9Y-100.82
T3
X88.402Y-77.31
X89.38Y-128.08
X94.752Y-74.77
X95.73Y-125.54
X109.3Y-128.08
X115.65Y-125.54
X147.08Y-128.08
X153.43Y-125.54
X167.38Y-128.08
X173.73Y-125.54
T4
X86.84Y-123.0
X87.132Y-79.85
X97.0Y-123.0
X97.292Y-79.85
X106.76Y-123.0
X116.92Y-123.0
X144.54Y-123.0
X154.7Y-123.0
X164.84Y-123.0
X175.0Y-123.0
T5
X91.92Y-123.0
X92.212Y-79.85
X111.84Y-123.0
X149.62Y-123.0
X169.92Y-123.0
M30
