%TF.GenerationSoftware,KiCad,Pcbnew,9.0.6*%
%TF.CreationDate,2025-12-12T19:01:35-05:00*%
%TF.ProjectId,Macropad,4d616372-6f70-4616-942e-6b696361645f,rev?*%
%TF.SameCoordinates,Original*%
%TF.FileFunction,Copper,L1,Top*%
%TF.FilePolarity,Positive*%
%FSLAX46Y46*%
G04 Gerber Fmt 4.6, Leading zero omitted, Abs format (unit mm)*
G04 Created by KiCad (PCBNEW 9.0.6) date 2025-12-12 19:01:35*
%MOMM*%
%LPD*%
G01*
G04 APERTURE LIST*
G04 Aperture macros list*
%AMRoundRect*
0 Rectangle with rounded corners*
0 $1 Rounding radius*
0 $2 $3 $4 $5 $6 $7 $8 $9 X,Y pos of 4 corners*
0 Add a 4 corners polygon primitive as box body*
4,1,4,$2,$3,$4,$5,$6,$7,$8,$9,$2,$3,0*
0 Add four circle primitives for the rounded corners*
1,1,$1+$1,$2,$3*
1,1,$1+$1,$4,$5*
1,1,$1+$1,$6,$7*
1,1,$1+$1,$8,$9*
0 Add four rect primitives between the rounded corners*
20,1,$1+$1,$2,$3,$4,$5,0*
20,1,$1+$1,$4,$5,$6,$7,0*
20,1,$1+$1,$6,$7,$8,$9,0*
20,1,$1+$1,$8,$9,$2,$3,0*%
G04 Aperture macros list end*
%ADD10C,0.300000*%
%TA.AperFunction,NonConductor*%
%ADD11C,0.300000*%
%TD*%
%TA.AperFunction,ComponentPad*%
%ADD12C,2.200000*%
%TD*%
%TA.AperFunction,ComponentPad*%
%ADD13R,1.700000X1.700000*%
%TD*%
%TA.AperFunction,ComponentPad*%
%ADD14O,1.700000X1.700000*%
%TD*%
%TA.AperFunction,SMDPad,CuDef*%
%ADD15R,1.600000X0.850000*%
%TD*%
%TA.AperFunction,SMDPad,CuDef*%
%ADD16RoundRect,0.152400X1.063600X0.609600X-1.063600X0.609600X-1.063600X-0.609600X1.063600X-0.609600X0*%
%TD*%
%TA.AperFunction,ComponentPad*%
%ADD17C,1.524000*%
%TD*%
%TA.AperFunction,SMDPad,CuDef*%
%ADD18RoundRect,0.152400X-1.063600X-0.609600X1.063600X-0.609600X1.063600X0.609600X-1.063600X0.609600X0*%
%TD*%
%TA.AperFunction,Conductor*%
%ADD19C,0.200000*%
%TD*%
G04 APERTURE END LIST*
D10*
D11*
X188554510Y-189800828D02*
X188554510Y-188800828D01*
X188554510Y-188943685D02*
X188625939Y-188872257D01*
X188625939Y-188872257D02*
X188768796Y-188800828D01*
X188768796Y-188800828D02*
X188983082Y-188800828D01*
X188983082Y-188800828D02*
X189125939Y-188872257D01*
X189125939Y-188872257D02*
X189197368Y-189015114D01*
X189197368Y-189015114D02*
X189197368Y-189800828D01*
X189197368Y-189015114D02*
X189268796Y-188872257D01*
X189268796Y-188872257D02*
X189411653Y-188800828D01*
X189411653Y-188800828D02*
X189625939Y-188800828D01*
X189625939Y-188800828D02*
X189768796Y-188872257D01*
X189768796Y-188872257D02*
X189840225Y-189015114D01*
X189840225Y-189015114D02*
X189840225Y-189800828D01*
X191197368Y-189800828D02*
X191197368Y-189015114D01*
X191197368Y-189015114D02*
X191125939Y-188872257D01*
X191125939Y-188872257D02*
X190983082Y-188800828D01*
X190983082Y-188800828D02*
X190697368Y-188800828D01*
X190697368Y-188800828D02*
X190554510Y-188872257D01*
X191197368Y-189729400D02*
X191054510Y-189800828D01*
X191054510Y-189800828D02*
X190697368Y-189800828D01*
X190697368Y-189800828D02*
X190554510Y-189729400D01*
X190554510Y-189729400D02*
X190483082Y-189586542D01*
X190483082Y-189586542D02*
X190483082Y-189443685D01*
X190483082Y-189443685D02*
X190554510Y-189300828D01*
X190554510Y-189300828D02*
X190697368Y-189229400D01*
X190697368Y-189229400D02*
X191054510Y-189229400D01*
X191054510Y-189229400D02*
X191197368Y-189157971D01*
X192554511Y-189729400D02*
X192411653Y-189800828D01*
X192411653Y-189800828D02*
X192125939Y-189800828D01*
X192125939Y-189800828D02*
X191983082Y-189729400D01*
X191983082Y-189729400D02*
X191911653Y-189657971D01*
X191911653Y-189657971D02*
X191840225Y-189515114D01*
X191840225Y-189515114D02*
X191840225Y-189086542D01*
X191840225Y-189086542D02*
X191911653Y-188943685D01*
X191911653Y-188943685D02*
X191983082Y-188872257D01*
X191983082Y-188872257D02*
X192125939Y-188800828D01*
X192125939Y-188800828D02*
X192411653Y-188800828D01*
X192411653Y-188800828D02*
X192554511Y-188872257D01*
X193197367Y-189800828D02*
X193197367Y-188800828D01*
X193197367Y-189086542D02*
X193268796Y-188943685D01*
X193268796Y-188943685D02*
X193340225Y-188872257D01*
X193340225Y-188872257D02*
X193483082Y-188800828D01*
X193483082Y-188800828D02*
X193625939Y-188800828D01*
X194340224Y-189800828D02*
X194197367Y-189729400D01*
X194197367Y-189729400D02*
X194125938Y-189657971D01*
X194125938Y-189657971D02*
X194054510Y-189515114D01*
X194054510Y-189515114D02*
X194054510Y-189086542D01*
X194054510Y-189086542D02*
X194125938Y-188943685D01*
X194125938Y-188943685D02*
X194197367Y-188872257D01*
X194197367Y-188872257D02*
X194340224Y-188800828D01*
X194340224Y-188800828D02*
X194554510Y-188800828D01*
X194554510Y-188800828D02*
X194697367Y-188872257D01*
X194697367Y-188872257D02*
X194768796Y-188943685D01*
X194768796Y-188943685D02*
X194840224Y-189086542D01*
X194840224Y-189086542D02*
X194840224Y-189515114D01*
X194840224Y-189515114D02*
X194768796Y-189657971D01*
X194768796Y-189657971D02*
X194697367Y-189729400D01*
X194697367Y-189729400D02*
X194554510Y-189800828D01*
X194554510Y-189800828D02*
X194340224Y-189800828D01*
X195483081Y-188800828D02*
X195483081Y-190300828D01*
X195483081Y-188872257D02*
X195625939Y-188800828D01*
X195625939Y-188800828D02*
X195911653Y-188800828D01*
X195911653Y-188800828D02*
X196054510Y-188872257D01*
X196054510Y-188872257D02*
X196125939Y-188943685D01*
X196125939Y-188943685D02*
X196197367Y-189086542D01*
X196197367Y-189086542D02*
X196197367Y-189515114D01*
X196197367Y-189515114D02*
X196125939Y-189657971D01*
X196125939Y-189657971D02*
X196054510Y-189729400D01*
X196054510Y-189729400D02*
X195911653Y-189800828D01*
X195911653Y-189800828D02*
X195625939Y-189800828D01*
X195625939Y-189800828D02*
X195483081Y-189729400D01*
X197483082Y-189800828D02*
X197483082Y-189015114D01*
X197483082Y-189015114D02*
X197411653Y-188872257D01*
X197411653Y-188872257D02*
X197268796Y-188800828D01*
X197268796Y-188800828D02*
X196983082Y-188800828D01*
X196983082Y-188800828D02*
X196840224Y-188872257D01*
X197483082Y-189729400D02*
X197340224Y-189800828D01*
X197340224Y-189800828D02*
X196983082Y-189800828D01*
X196983082Y-189800828D02*
X196840224Y-189729400D01*
X196840224Y-189729400D02*
X196768796Y-189586542D01*
X196768796Y-189586542D02*
X196768796Y-189443685D01*
X196768796Y-189443685D02*
X196840224Y-189300828D01*
X196840224Y-189300828D02*
X196983082Y-189229400D01*
X196983082Y-189229400D02*
X197340224Y-189229400D01*
X197340224Y-189229400D02*
X197483082Y-189157971D01*
X198840225Y-189800828D02*
X198840225Y-188300828D01*
X198840225Y-189729400D02*
X198697367Y-189800828D01*
X198697367Y-189800828D02*
X198411653Y-189800828D01*
X198411653Y-189800828D02*
X198268796Y-189729400D01*
X198268796Y-189729400D02*
X198197367Y-189657971D01*
X198197367Y-189657971D02*
X198125939Y-189515114D01*
X198125939Y-189515114D02*
X198125939Y-189086542D01*
X198125939Y-189086542D02*
X198197367Y-188943685D01*
X198197367Y-188943685D02*
X198268796Y-188872257D01*
X198268796Y-188872257D02*
X198411653Y-188800828D01*
X198411653Y-188800828D02*
X198697367Y-188800828D01*
X198697367Y-188800828D02*
X198840225Y-188872257D01*
X200697367Y-189800828D02*
X200697367Y-188300828D01*
X200697367Y-188872257D02*
X200840225Y-188800828D01*
X200840225Y-188800828D02*
X201125939Y-188800828D01*
X201125939Y-188800828D02*
X201268796Y-188872257D01*
X201268796Y-188872257D02*
X201340225Y-188943685D01*
X201340225Y-188943685D02*
X201411653Y-189086542D01*
X201411653Y-189086542D02*
X201411653Y-189515114D01*
X201411653Y-189515114D02*
X201340225Y-189657971D01*
X201340225Y-189657971D02*
X201268796Y-189729400D01*
X201268796Y-189729400D02*
X201125939Y-189800828D01*
X201125939Y-189800828D02*
X200840225Y-189800828D01*
X200840225Y-189800828D02*
X200697367Y-189729400D01*
X201911653Y-188800828D02*
X202268796Y-189800828D01*
X202625939Y-188800828D02*
X202268796Y-189800828D01*
X202268796Y-189800828D02*
X202125939Y-190157971D01*
X202125939Y-190157971D02*
X202054510Y-190229400D01*
X202054510Y-190229400D02*
X201911653Y-190300828D01*
X204840224Y-189015114D02*
X205054510Y-189086542D01*
X205054510Y-189086542D02*
X205125939Y-189157971D01*
X205125939Y-189157971D02*
X205197367Y-189300828D01*
X205197367Y-189300828D02*
X205197367Y-189515114D01*
X205197367Y-189515114D02*
X205125939Y-189657971D01*
X205125939Y-189657971D02*
X205054510Y-189729400D01*
X205054510Y-189729400D02*
X204911653Y-189800828D01*
X204911653Y-189800828D02*
X204340224Y-189800828D01*
X204340224Y-189800828D02*
X204340224Y-188300828D01*
X204340224Y-188300828D02*
X204840224Y-188300828D01*
X204840224Y-188300828D02*
X204983082Y-188372257D01*
X204983082Y-188372257D02*
X205054510Y-188443685D01*
X205054510Y-188443685D02*
X205125939Y-188586542D01*
X205125939Y-188586542D02*
X205125939Y-188729400D01*
X205125939Y-188729400D02*
X205054510Y-188872257D01*
X205054510Y-188872257D02*
X204983082Y-188943685D01*
X204983082Y-188943685D02*
X204840224Y-189015114D01*
X204840224Y-189015114D02*
X204340224Y-189015114D01*
X206411653Y-189729400D02*
X206268796Y-189800828D01*
X206268796Y-189800828D02*
X205983082Y-189800828D01*
X205983082Y-189800828D02*
X205840224Y-189729400D01*
X205840224Y-189729400D02*
X205768796Y-189586542D01*
X205768796Y-189586542D02*
X205768796Y-189015114D01*
X205768796Y-189015114D02*
X205840224Y-188872257D01*
X205840224Y-188872257D02*
X205983082Y-188800828D01*
X205983082Y-188800828D02*
X206268796Y-188800828D01*
X206268796Y-188800828D02*
X206411653Y-188872257D01*
X206411653Y-188872257D02*
X206483082Y-189015114D01*
X206483082Y-189015114D02*
X206483082Y-189157971D01*
X206483082Y-189157971D02*
X205768796Y-189300828D01*
X207768796Y-189800828D02*
X207768796Y-188300828D01*
X207768796Y-189729400D02*
X207625938Y-189800828D01*
X207625938Y-189800828D02*
X207340224Y-189800828D01*
X207340224Y-189800828D02*
X207197367Y-189729400D01*
X207197367Y-189729400D02*
X207125938Y-189657971D01*
X207125938Y-189657971D02*
X207054510Y-189515114D01*
X207054510Y-189515114D02*
X207054510Y-189086542D01*
X207054510Y-189086542D02*
X207125938Y-188943685D01*
X207125938Y-188943685D02*
X207197367Y-188872257D01*
X207197367Y-188872257D02*
X207340224Y-188800828D01*
X207340224Y-188800828D02*
X207625938Y-188800828D01*
X207625938Y-188800828D02*
X207768796Y-188872257D01*
X208268796Y-188300828D02*
X209125939Y-188300828D01*
X208697367Y-189800828D02*
X208697367Y-188300828D01*
X209625938Y-189800828D02*
X209625938Y-188800828D01*
X209625938Y-188300828D02*
X209554510Y-188372257D01*
X209554510Y-188372257D02*
X209625938Y-188443685D01*
X209625938Y-188443685D02*
X209697367Y-188372257D01*
X209697367Y-188372257D02*
X209625938Y-188300828D01*
X209625938Y-188300828D02*
X209625938Y-188443685D01*
X210340224Y-189800828D02*
X210340224Y-188800828D01*
X210340224Y-188943685D02*
X210411653Y-188872257D01*
X210411653Y-188872257D02*
X210554510Y-188800828D01*
X210554510Y-188800828D02*
X210768796Y-188800828D01*
X210768796Y-188800828D02*
X210911653Y-188872257D01*
X210911653Y-188872257D02*
X210983082Y-189015114D01*
X210983082Y-189015114D02*
X210983082Y-189800828D01*
X210983082Y-189015114D02*
X211054510Y-188872257D01*
X211054510Y-188872257D02*
X211197367Y-188800828D01*
X211197367Y-188800828D02*
X211411653Y-188800828D01*
X211411653Y-188800828D02*
X211554510Y-188872257D01*
X211554510Y-188872257D02*
X211625939Y-189015114D01*
X211625939Y-189015114D02*
X211625939Y-189800828D01*
X212911653Y-189729400D02*
X212768796Y-189800828D01*
X212768796Y-189800828D02*
X212483082Y-189800828D01*
X212483082Y-189800828D02*
X212340224Y-189729400D01*
X212340224Y-189729400D02*
X212268796Y-189586542D01*
X212268796Y-189586542D02*
X212268796Y-189015114D01*
X212268796Y-189015114D02*
X212340224Y-188872257D01*
X212340224Y-188872257D02*
X212483082Y-188800828D01*
X212483082Y-188800828D02*
X212768796Y-188800828D01*
X212768796Y-188800828D02*
X212911653Y-188872257D01*
X212911653Y-188872257D02*
X212983082Y-189015114D01*
X212983082Y-189015114D02*
X212983082Y-189157971D01*
X212983082Y-189157971D02*
X212268796Y-189300828D01*
D12*
%TO.P,SW1,1,1*%
%TO.N,Net-(U1-GPIO3{slash}MOSI)*%
X89380000Y-128080000D03*
%TO.P,SW1,2,2*%
%TO.N,GND*%
X95730000Y-125540000D03*
%TD*%
%TO.P,SW2,1,1*%
%TO.N,Net-(U1-GPIO4{slash}MISO)*%
X109300000Y-128080000D03*
%TO.P,SW2,2,2*%
%TO.N,GND*%
X115650000Y-125540000D03*
%TD*%
D13*
%TO.P,J1,1,Pin_1*%
%TO.N,GND*%
X179900000Y-93200000D03*
D14*
%TO.P,J1,2,Pin_2*%
%TO.N,+5V*%
X179900000Y-95740000D03*
%TO.P,J1,3,Pin_3*%
%TO.N,Net-(J1-Pin_3)*%
X179900000Y-98280000D03*
%TO.P,J1,4,Pin_4*%
%TO.N,Net-(J1-Pin_4)*%
X179900000Y-100820000D03*
%TD*%
D15*
%TO.P,D2,1,DOUT*%
%TO.N,Net-(D2-DOUT)*%
X93867500Y-109593750D03*
%TO.P,D2,2,VSS*%
%TO.N,GND*%
X93867500Y-107843750D03*
%TO.P,D2,3,DIN*%
%TO.N,Net-(D1-DOUT)*%
X90367500Y-107843750D03*
%TO.P,D2,4,VDD*%
%TO.N,+5V*%
X90367500Y-109593750D03*
%TD*%
%TO.P,D3,1,DOUT*%
%TO.N,Net-(D3-DOUT)*%
X114450000Y-109575000D03*
%TO.P,D3,2,VSS*%
%TO.N,GND*%
X114450000Y-107825000D03*
%TO.P,D3,3,DIN*%
%TO.N,Net-(D2-DOUT)*%
X110950000Y-107825000D03*
%TO.P,D3,4,VDD*%
%TO.N,+5V*%
X110950000Y-109575000D03*
%TD*%
%TO.P,D5,1,DOUT*%
%TO.N,unconnected-(D5-DOUT-Pad1)*%
X170750000Y-109875000D03*
%TO.P,D5,2,VSS*%
%TO.N,GND*%
X170750000Y-108125000D03*
%TO.P,D5,3,DIN*%
%TO.N,Net-(D4-DOUT)*%
X167250000Y-108125000D03*
%TO.P,D5,4,VDD*%
%TO.N,+5V*%
X167250000Y-109875000D03*
%TD*%
D12*
%TO.P,SW3,1,1*%
%TO.N,GND*%
X147080000Y-128080000D03*
%TO.P,SW3,2,2*%
%TO.N,Net-(U1-GPIO2{slash}SCK)*%
X153430000Y-125540000D03*
%TD*%
D15*
%TO.P,D4,1,DOUT*%
%TO.N,Net-(D4-DOUT)*%
X152200000Y-108950000D03*
%TO.P,D4,2,VSS*%
%TO.N,GND*%
X152200000Y-107200000D03*
%TO.P,D4,3,DIN*%
%TO.N,Net-(D3-DOUT)*%
X148700000Y-107200000D03*
%TO.P,D4,4,VDD*%
%TO.N,+5V*%
X148700000Y-108950000D03*
%TD*%
D16*
%TO.P,U1,1,GPIO26/ADC0/A0*%
%TO.N,Net-(J1-Pin_4)*%
X134230000Y-72515000D03*
D17*
X135065000Y-72515000D03*
D16*
%TO.P,U1,2,GPIO27/ADC1/A1*%
%TO.N,Net-(J1-Pin_3)*%
X134230000Y-75055000D03*
D17*
X135065000Y-75055000D03*
D16*
%TO.P,U1,3,GPIO28/ADC2/A2*%
%TO.N,Net-(D1-DIN)*%
X134230000Y-77595000D03*
D17*
X135065000Y-77595000D03*
D16*
%TO.P,U1,4,GPIO29/ADC3/A3*%
%TO.N,unconnected-(U1-GPIO29{slash}ADC3{slash}A3-Pad4)*%
X134230000Y-80135000D03*
D17*
X135065000Y-80135000D03*
D16*
%TO.P,U1,5,GPIO6/SDA*%
%TO.N,unconnected-(U1-GPIO6{slash}SDA-Pad5)*%
X134230000Y-82675000D03*
D17*
X135065000Y-82675000D03*
D16*
%TO.P,U1,6,GPIO7/SCL*%
%TO.N,unconnected-(U1-GPIO7{slash}SCL-Pad6)*%
X134230000Y-85215000D03*
D17*
X135065000Y-85215000D03*
D16*
%TO.P,U1,7,GPIO0/TX*%
%TO.N,Net-(U1-GPIO0{slash}TX)*%
X134230000Y-87755000D03*
D17*
X135065000Y-87755000D03*
%TO.P,U1,8,GPIO1/RX*%
%TO.N,Net-(U1-GPIO1{slash}RX)*%
X150305000Y-87755000D03*
D18*
X151140000Y-87755000D03*
D17*
%TO.P,U1,9,GPIO2/SCK*%
%TO.N,Net-(U1-GPIO2{slash}SCK)*%
X150305000Y-85215000D03*
D18*
X151140000Y-85215000D03*
D17*
%TO.P,U1,10,GPIO4/MISO*%
%TO.N,Net-(U1-GPIO4{slash}MISO)*%
X150305000Y-82675000D03*
D18*
X151140000Y-82675000D03*
D17*
%TO.P,U1,11,GPIO3/MOSI*%
%TO.N,Net-(U1-GPIO3{slash}MOSI)*%
X150305000Y-80135000D03*
D18*
X151140000Y-80135000D03*
D17*
%TO.P,U1,12,3V3*%
%TO.N,unconnected-(U1-3V3-Pad12)*%
X150305000Y-77595000D03*
D18*
X151140000Y-77595000D03*
D17*
%TO.P,U1,13,GND*%
%TO.N,GND*%
X150305000Y-75055000D03*
D18*
X151140000Y-75055000D03*
D17*
%TO.P,U1,14,VBUS*%
%TO.N,+5V*%
X150305000Y-72515000D03*
D18*
X151140000Y-72515000D03*
%TD*%
D12*
%TO.P,SW4,1,1*%
%TO.N,GND*%
X167380000Y-128080000D03*
%TO.P,SW4,2,2*%
%TO.N,Net-(U1-GPIO1{slash}RX)*%
X173730000Y-125540000D03*
%TD*%
D15*
%TO.P,D1,1,DOUT*%
%TO.N,Net-(D1-DOUT)*%
X90000000Y-92200000D03*
%TO.P,D1,2,VSS*%
%TO.N,GND*%
X90000000Y-93950000D03*
%TO.P,D1,3,DIN*%
%TO.N,Net-(D1-DIN)*%
X93500000Y-93950000D03*
%TO.P,D1,4,VDD*%
%TO.N,+5V*%
X93500000Y-92200000D03*
%TD*%
D12*
%TO.P,SW5,1,1*%
%TO.N,GND*%
X94752500Y-74770000D03*
%TO.P,SW5,2,2*%
%TO.N,Net-(U1-GPIO0{slash}TX)*%
X88402500Y-77310000D03*
%TD*%
D19*
%TO.N,GND*%
X158152000Y-71452000D02*
X149864690Y-71452000D01*
X91101000Y-92849000D02*
X90000000Y-93950000D01*
X115650000Y-114275000D02*
X115650000Y-125540000D01*
X113349000Y-111974000D02*
X115650000Y-114275000D01*
X95730000Y-125540000D02*
X95730000Y-113283250D01*
X147080000Y-112320000D02*
X147080000Y-128080000D01*
X93867500Y-107843750D02*
X91391500Y-110319750D01*
X92711250Y-110264500D02*
X92711250Y-109000000D01*
X115650000Y-125540000D02*
X118190000Y-128080000D01*
X181000000Y-112000000D02*
X181051000Y-111949000D01*
X118190000Y-128080000D02*
X147080000Y-128080000D01*
X177125000Y-108125000D02*
X181000000Y-112000000D01*
X88198000Y-109251250D02*
X88198000Y-92175000D01*
X88899000Y-91474000D02*
X91101000Y-91474000D01*
X95730000Y-113283250D02*
X92711250Y-110264500D01*
X181051000Y-94351000D02*
X179900000Y-93200000D01*
X94752500Y-74770000D02*
X95944500Y-73578000D01*
X91391500Y-110319750D02*
X89266500Y-110319750D01*
X167250000Y-127950000D02*
X167380000Y-128080000D01*
X149242000Y-73992000D02*
X150305000Y-75055000D01*
X113349000Y-108926000D02*
X113349000Y-111974000D01*
X96735000Y-125540000D02*
X95730000Y-125540000D01*
X181051000Y-111949000D02*
X181051000Y-94351000D01*
X152200000Y-107200000D02*
X147080000Y-112320000D01*
X92711250Y-109000000D02*
X93867500Y-107843750D01*
X170750000Y-108125000D02*
X177125000Y-108125000D01*
X94752500Y-74770000D02*
X94752500Y-89197500D01*
X167380000Y-111495000D02*
X167380000Y-128080000D01*
X149864690Y-71452000D02*
X149242000Y-72074690D01*
X114450000Y-107825000D02*
X96735000Y-125540000D01*
X170750000Y-108125000D02*
X167380000Y-111495000D01*
X148828000Y-73578000D02*
X150305000Y-75055000D01*
X179900000Y-93200000D02*
X158152000Y-71452000D01*
X95944500Y-73578000D02*
X148828000Y-73578000D01*
X94752500Y-89197500D02*
X90000000Y-93950000D01*
X89266500Y-110319750D02*
X88198000Y-109251250D01*
X88198000Y-92175000D02*
X88899000Y-91474000D01*
X91101000Y-91474000D02*
X91101000Y-92849000D01*
X114625000Y-108000000D02*
X114450000Y-107825000D01*
X149242000Y-72074690D02*
X149242000Y-73992000D01*
X114450000Y-107825000D02*
X113349000Y-108926000D01*
%TO.N,+5V*%
X168351000Y-108774000D02*
X167250000Y-109875000D01*
X168351000Y-107399000D02*
X168351000Y-108774000D01*
X167426000Y-106474000D02*
X168351000Y-107399000D01*
X149801000Y-106474000D02*
X149801000Y-107849000D01*
X92000000Y-107961250D02*
X90367500Y-109593750D01*
X112051000Y-108474000D02*
X110950000Y-109575000D01*
X149801000Y-107849000D02*
X148700000Y-108950000D01*
X148700000Y-108950000D02*
X151176000Y-106474000D01*
X150918626Y-72515000D02*
X150305000Y-72515000D01*
X92000000Y-93700000D02*
X92000000Y-107961250D01*
X156675000Y-72515000D02*
X150305000Y-72515000D01*
X114051000Y-106474000D02*
X149801000Y-106474000D01*
X93500000Y-92200000D02*
X109582000Y-76118000D01*
X110950000Y-109575000D02*
X114051000Y-106474000D01*
X152657000Y-74253374D02*
X150918626Y-72515000D01*
X92862250Y-107099000D02*
X112051000Y-107099000D01*
X152657000Y-75856626D02*
X152657000Y-74253374D01*
X152395626Y-76118000D02*
X152657000Y-75856626D01*
X93500000Y-92200000D02*
X92000000Y-93700000D01*
X179900000Y-95740000D02*
X156675000Y-72515000D01*
X151176000Y-106474000D02*
X167426000Y-106474000D01*
X90367500Y-109593750D02*
X92862250Y-107099000D01*
X112051000Y-107099000D02*
X112051000Y-108474000D01*
X109582000Y-76118000D02*
X152395626Y-76118000D01*
%TO.N,Net-(D1-DIN)*%
X117875000Y-93950000D02*
X134230000Y-77595000D01*
X93500000Y-93950000D02*
X117875000Y-93950000D01*
%TO.N,Net-(D1-DOUT)*%
X90367500Y-107843750D02*
X88599000Y-106075250D01*
X88599000Y-93601000D02*
X90000000Y-92200000D01*
X88599000Y-106075250D02*
X88599000Y-93601000D01*
%TO.N,Net-(D2-DOUT)*%
X93867500Y-109593750D02*
X109181250Y-109593750D01*
X109181250Y-109593750D02*
X110950000Y-107825000D01*
%TO.N,Net-(D3-DOUT)*%
X146325000Y-109575000D02*
X148700000Y-107200000D01*
X114450000Y-109575000D02*
X146325000Y-109575000D01*
%TO.N,Net-(D4-DOUT)*%
X152200000Y-108950000D02*
X166425000Y-108950000D01*
X166425000Y-108950000D02*
X167250000Y-108125000D01*
%TD*%
M02*
