%TF.GenerationSoftware,KiCad,Pcbnew,9.0.6*%
%TF.CreationDate,2025-12-12T19:01:35-05:00*%
%TF.ProjectId,Macropad,4d616372-6f70-4616-942e-6b696361645f,rev?*%
%TF.SameCoordinates,Original*%
%TF.FileFunction,Copper,L2,Bot*%
%TF.FilePolarity,Positive*%
%FSLAX46Y46*%
G04 Gerber Fmt 4.6, Leading zero omitted, Abs format (unit mm)*
G04 Created by KiCad (PCBNEW 9.0.6) date 2025-12-12 19:01:35*
%MOMM*%
%LPD*%
G01*
G04 APERTURE LIST*
%TA.AperFunction,ComponentPad*%
%ADD10C,2.200000*%
%TD*%
%TA.AperFunction,ComponentPad*%
%ADD11R,1.700000X1.700000*%
%TD*%
%TA.AperFunction,ComponentPad*%
%ADD12O,1.700000X1.700000*%
%TD*%
%TA.AperFunction,ComponentPad*%
%ADD13C,1.524000*%
%TD*%
%TA.AperFunction,Conductor*%
%ADD14C,0.200000*%
%TD*%
G04 APERTURE END LIST*
D10*
%TO.P,SW1,1,1*%
%TO.N,Net-(U1-GPIO3{slash}MOSI)*%
X89380000Y-128080000D03*
%TO.P,SW1,2,2*%
%TO.N,GND*%
X95730000Y-125540000D03*
%TD*%
%TO.P,SW2,1,1*%
%TO.N,Net-(U1-GPIO4{slash}MISO)*%
X109300000Y-128080000D03*
%TO.P,SW2,2,2*%
%TO.N,GND*%
X115650000Y-125540000D03*
%TD*%
D11*
%TO.P,J1,1,Pin_1*%
%TO.N,GND*%
X179900000Y-93200000D03*
D12*
%TO.P,J1,2,Pin_2*%
%TO.N,+5V*%
X179900000Y-95740000D03*
%TO.P,J1,3,Pin_3*%
%TO.N,Net-(J1-Pin_3)*%
X179900000Y-98280000D03*
%TO.P,J1,4,Pin_4*%
%TO.N,Net-(J1-Pin_4)*%
X179900000Y-100820000D03*
%TD*%
D10*
%TO.P,SW3,1,1*%
%TO.N,GND*%
X147080000Y-128080000D03*
%TO.P,SW3,2,2*%
%TO.N,Net-(U1-GPIO2{slash}SCK)*%
X153430000Y-125540000D03*
%TD*%
D13*
%TO.P,U1,1,GPIO26/ADC0/A0*%
%TO.N,Net-(J1-Pin_4)*%
X135065000Y-72515000D03*
%TO.P,U1,2,GPIO27/ADC1/A1*%
%TO.N,Net-(J1-Pin_3)*%
X135065000Y-75055000D03*
%TO.P,U1,3,GPIO28/ADC2/A2*%
%TO.N,Net-(D1-DIN)*%
X135065000Y-77595000D03*
%TO.P,U1,4,GPIO29/ADC3/A3*%
%TO.N,unconnected-(U1-GPIO29{slash}ADC3{slash}A3-Pad4)*%
X135065000Y-80135000D03*
%TO.P,U1,5,GPIO6/SDA*%
%TO.N,unconnected-(U1-GPIO6{slash}SDA-Pad5)*%
X135065000Y-82675000D03*
%TO.P,U1,6,GPIO7/SCL*%
%TO.N,unconnected-(U1-GPIO7{slash}SCL-Pad6)*%
X135065000Y-85215000D03*
%TO.P,U1,7,GPIO0/TX*%
%TO.N,Net-(U1-GPIO0{slash}TX)*%
X135065000Y-87755000D03*
%TO.P,U1,8,GPIO1/RX*%
%TO.N,Net-(U1-GPIO1{slash}RX)*%
X150305000Y-87755000D03*
%TO.P,U1,9,GPIO2/SCK*%
%TO.N,Net-(U1-GPIO2{slash}SCK)*%
X150305000Y-85215000D03*
%TO.P,U1,10,GPIO4/MISO*%
%TO.N,Net-(U1-GPIO4{slash}MISO)*%
X150305000Y-82675000D03*
%TO.P,U1,11,GPIO3/MOSI*%
%TO.N,Net-(U1-GPIO3{slash}MOSI)*%
X150305000Y-80135000D03*
%TO.P,U1,12,3V3*%
%TO.N,unconnected-(U1-3V3-Pad12)*%
X150305000Y-77595000D03*
%TO.P,U1,13,GND*%
%TO.N,GND*%
X150305000Y-75055000D03*
%TO.P,U1,14,VBUS*%
%TO.N,+5V*%
X150305000Y-72515000D03*
%TD*%
D10*
%TO.P,SW4,1,1*%
%TO.N,GND*%
X167380000Y-128080000D03*
%TO.P,SW4,2,2*%
%TO.N,Net-(U1-GPIO1{slash}RX)*%
X173730000Y-125540000D03*
%TD*%
%TO.P,SW5,1,1*%
%TO.N,GND*%
X94752500Y-74770000D03*
%TO.P,SW5,2,2*%
%TO.N,Net-(U1-GPIO0{slash}TX)*%
X88402500Y-77310000D03*
%TD*%
D14*
%TO.N,Net-(U1-GPIO3{slash}MOSI)*%
X89380000Y-128080000D02*
X96243310Y-128080000D01*
X89990000Y-127792500D02*
X90831530Y-127792500D01*
X144188310Y-80135000D02*
X150305000Y-80135000D01*
X96243310Y-128080000D02*
X144188310Y-80135000D01*
%TO.N,Net-(U1-GPIO4{slash}MISO)*%
X110141530Y-128080000D02*
X149242000Y-88979530D01*
X109300000Y-128080000D02*
X110141530Y-128080000D01*
X149242000Y-88979530D02*
X149242000Y-83738000D01*
X149242000Y-83738000D02*
X150305000Y-82675000D01*
%TO.N,Net-(U1-GPIO2{slash}SCK)*%
X153430000Y-125540000D02*
X153430000Y-88340000D01*
X153430000Y-88340000D02*
X150305000Y-85215000D01*
%TO.N,Net-(U1-GPIO1{slash}RX)*%
X147269000Y-91868630D02*
X150305000Y-88832630D01*
X166329000Y-126941000D02*
X150236184Y-126941000D01*
X150236184Y-126941000D02*
X147269000Y-123973816D01*
X147269000Y-123973816D02*
X147269000Y-91868630D01*
X150305000Y-88832630D02*
X150305000Y-87755000D01*
X167730000Y-125540000D02*
X166329000Y-126941000D01*
X173730000Y-125540000D02*
X167730000Y-125540000D01*
%TO.N,Net-(U1-GPIO0{slash}TX)*%
X88402500Y-77310000D02*
X94712500Y-71000000D01*
X94712500Y-71000000D02*
X137420000Y-71000000D01*
X137420000Y-71000000D02*
X137420000Y-85400000D01*
X137420000Y-85400000D02*
X135065000Y-87755000D01*
%TO.N,Net-(J1-Pin_4)*%
X93132186Y-70599000D02*
X87001500Y-76729686D01*
X87822186Y-78711000D02*
X88982814Y-78711000D01*
X137586100Y-70599000D02*
X93132186Y-70599000D01*
X88982814Y-78711000D02*
X90964128Y-76729686D01*
X87001500Y-77890314D02*
X87822186Y-78711000D01*
X90964128Y-76729686D02*
X130850314Y-76729686D01*
X130850314Y-76729686D02*
X135065000Y-72515000D01*
X146059100Y-79072000D02*
X137586100Y-70599000D01*
X179900000Y-100820000D02*
X158152000Y-79072000D01*
X87001500Y-76729686D02*
X87001500Y-77890314D01*
X158152000Y-79072000D02*
X146059100Y-79072000D01*
%TO.N,Net-(J1-Pin_3)*%
X92966086Y-70198000D02*
X85931500Y-77232586D01*
X85931500Y-77232586D02*
X85931500Y-80347470D01*
X85931500Y-80347470D02*
X86635030Y-81051000D01*
X132702000Y-77418000D02*
X135065000Y-75055000D01*
X86635030Y-81051000D02*
X87629970Y-81051000D01*
X179900000Y-98280000D02*
X151818000Y-70198000D01*
X87629970Y-81051000D02*
X91262970Y-77418000D01*
X151818000Y-70198000D02*
X92966086Y-70198000D01*
X91262970Y-77418000D02*
X132702000Y-77418000D01*
%TD*%
M02*
