%TF.GenerationSoftware,KiCad,Pcbnew,9.0.6*%
%TF.CreationDate,2025-12-12T19:01:35-05:00*%
%TF.ProjectId,Macropad,4d616372-6f70-4616-942e-6b696361645f,rev?*%
%TF.SameCoordinates,Original*%
%TF.FileFunction,Soldermask,Bot*%
%TF.FilePolarity,Negative*%
%FSLAX46Y46*%
G04 Gerber Fmt 4.6, Leading zero omitted, Abs format (unit mm)*
G04 Created by KiCad (PCBNEW 9.0.6) date 2025-12-12 19:01:35*
%MOMM*%
%LPD*%
G01*
G04 APERTURE LIST*
%ADD10C,1.700000*%
%ADD11C,4.000000*%
%ADD12C,2.200000*%
%ADD13R,1.700000X1.700000*%
%ADD14O,1.700000X1.700000*%
%ADD15C,1.524000*%
G04 APERTURE END LIST*
D10*
%TO.C,SW1*%
X97000000Y-123000000D03*
D11*
X91920000Y-123000000D03*
D10*
X86840000Y-123000000D03*
D12*
X89380000Y-128080000D03*
X95730000Y-125540000D03*
%TD*%
D10*
%TO.C,SW2*%
X116920000Y-123000000D03*
D11*
X111840000Y-123000000D03*
D10*
X106760000Y-123000000D03*
D12*
X109300000Y-128080000D03*
X115650000Y-125540000D03*
%TD*%
D13*
%TO.C,J1*%
X179900000Y-93200000D03*
D14*
X179900000Y-95740000D03*
X179900000Y-98280000D03*
X179900000Y-100820000D03*
%TD*%
D10*
%TO.C,SW3*%
X154700000Y-123000000D03*
D11*
X149620000Y-123000000D03*
D10*
X144540000Y-123000000D03*
D12*
X147080000Y-128080000D03*
X153430000Y-125540000D03*
%TD*%
D15*
%TO.C,U1*%
X135065000Y-72515000D03*
X135065000Y-75055000D03*
X135065000Y-77595000D03*
X135065000Y-80135000D03*
X135065000Y-82675000D03*
X135065000Y-85215000D03*
X135065000Y-87755000D03*
X150305000Y-87755000D03*
X150305000Y-85215000D03*
X150305000Y-82675000D03*
X150305000Y-80135000D03*
X150305000Y-77595000D03*
X150305000Y-75055000D03*
X150305000Y-72515000D03*
%TD*%
D10*
%TO.C,SW4*%
X175000000Y-123000000D03*
D11*
X169920000Y-123000000D03*
D10*
X164840000Y-123000000D03*
D12*
X167380000Y-128080000D03*
X173730000Y-125540000D03*
%TD*%
D10*
%TO.C,SW5*%
X87132500Y-79850000D03*
D11*
X92212500Y-79850000D03*
D10*
X97292500Y-79850000D03*
D12*
X94752500Y-74770000D03*
X88402500Y-77310000D03*
%TD*%
M02*
