ISO-10303-21;
HEADER;
/* Generated by software containing ST-Developer
 * from STEP Tools, Inc. (www.steptools.com) 
 */

FILE_DESCRIPTION(
/* description */ (''),
/* implementation_level */ '2;1');

FILE_NAME(
/* name */ 'FINAL_TOP.step',
/* time_stamp */ '2025-12-15T16:22:20-05:00',
/* author */ (''),
/* organization */ (''),
/* preprocessor_version */ 'ST-DEVELOPER v20.1',
/* originating_system */ 'Autodesk Translation Framework v14.21.0.0',
/* authorisation */ '');

FILE_SCHEMA (('AUTOMOTIVE_DESIGN { 1 0 10303 214 3 1 1 }'));
ENDSEC;

DATA;
#10=MECHANICAL_DESIGN_GEOMETRIC_PRESENTATION_REPRESENTATION('',(#13),#1155);
#11=SHAPE_REPRESENTATION_RELATIONSHIP('SRR','None',#1162,#12);
#12=ADVANCED_BREP_SHAPE_REPRESENTATION('',(#14),#1154);
#13=STYLED_ITEM('',(#1171),#14);
#14=MANIFOLD_SOLID_BREP('Body2',#711);
#15=FACE_BOUND('',#94,.T.);
#16=FACE_BOUND('',#95,.T.);
#17=FACE_BOUND('',#96,.T.);
#18=FACE_BOUND('',#97,.T.);
#19=FACE_BOUND('',#98,.T.);
#20=FACE_BOUND('',#99,.T.);
#21=FACE_BOUND('',#100,.T.);
#22=FACE_BOUND('',#101,.T.);
#23=FACE_BOUND('',#133,.T.);
#24=FACE_BOUND('',#134,.T.);
#25=FACE_BOUND('',#135,.T.);
#26=FACE_BOUND('',#136,.T.);
#27=FACE_BOUND('',#137,.T.);
#28=FACE_BOUND('',#138,.T.);
#29=FACE_BOUND('',#139,.T.);
#30=FACE_BOUND('',#140,.T.);
#31=PLANE('',#728);
#32=PLANE('',#729);
#33=PLANE('',#739);
#34=PLANE('',#742);
#35=PLANE('',#745);
#36=PLANE('',#746);
#37=PLANE('',#747);
#38=PLANE('',#748);
#39=PLANE('',#749);
#40=PLANE('',#754);
#41=PLANE('',#755);
#42=PLANE('',#756);
#43=PLANE('',#757);
#44=PLANE('',#760);
#45=PLANE('',#761);
#46=PLANE('',#762);
#47=PLANE('',#763);
#48=PLANE('',#764);
#49=PLANE('',#765);
#50=PLANE('',#766);
#51=PLANE('',#767);
#52=PLANE('',#768);
#53=PLANE('',#769);
#54=PLANE('',#770);
#55=PLANE('',#771);
#56=PLANE('',#774);
#57=FACE_OUTER_BOUND('',#91,.T.);
#58=FACE_OUTER_BOUND('',#92,.T.);
#59=FACE_OUTER_BOUND('',#93,.T.);
#60=FACE_OUTER_BOUND('',#102,.T.);
#61=FACE_OUTER_BOUND('',#103,.T.);
#62=FACE_OUTER_BOUND('',#104,.T.);
#63=FACE_OUTER_BOUND('',#105,.T.);
#64=FACE_OUTER_BOUND('',#106,.T.);
#65=FACE_OUTER_BOUND('',#107,.T.);
#66=FACE_OUTER_BOUND('',#108,.T.);
#67=FACE_OUTER_BOUND('',#109,.T.);
#68=FACE_OUTER_BOUND('',#110,.T.);
#69=FACE_OUTER_BOUND('',#111,.T.);
#70=FACE_OUTER_BOUND('',#112,.T.);
#71=FACE_OUTER_BOUND('',#113,.T.);
#72=FACE_OUTER_BOUND('',#114,.T.);
#73=FACE_OUTER_BOUND('',#115,.T.);
#74=FACE_OUTER_BOUND('',#116,.T.);
#75=FACE_OUTER_BOUND('',#117,.T.);
#76=FACE_OUTER_BOUND('',#118,.T.);
#77=FACE_OUTER_BOUND('',#119,.T.);
#78=FACE_OUTER_BOUND('',#120,.T.);
#79=FACE_OUTER_BOUND('',#121,.T.);
#80=FACE_OUTER_BOUND('',#122,.T.);
#81=FACE_OUTER_BOUND('',#123,.T.);
#82=FACE_OUTER_BOUND('',#124,.T.);
#83=FACE_OUTER_BOUND('',#125,.T.);
#84=FACE_OUTER_BOUND('',#126,.T.);
#85=FACE_OUTER_BOUND('',#127,.T.);
#86=FACE_OUTER_BOUND('',#128,.T.);
#87=FACE_OUTER_BOUND('',#129,.T.);
#88=FACE_OUTER_BOUND('',#130,.T.);
#89=FACE_OUTER_BOUND('',#131,.T.);
#90=FACE_OUTER_BOUND('',#132,.T.);
#91=EDGE_LOOP('',(#477,#478,#479,#480));
#92=EDGE_LOOP('',(#481,#482,#483,#484));
#93=EDGE_LOOP('',(#485,#486,#487,#488,#489,#490,#491,#492));
#94=EDGE_LOOP('',(#493));
#95=EDGE_LOOP('',(#494));
#96=EDGE_LOOP('',(#495,#496,#497,#498));
#97=EDGE_LOOP('',(#499));
#98=EDGE_LOOP('',(#500,#501,#502,#503));
#99=EDGE_LOOP('',(#504,#505,#506,#507,#508,#509,#510,#511));
#100=EDGE_LOOP('',(#512,#513,#514,#515));
#101=EDGE_LOOP('',(#516));
#102=EDGE_LOOP('',(#517,#518,#519,#520));
#103=EDGE_LOOP('',(#521,#522,#523,#524));
#104=EDGE_LOOP('',(#525,#526,#527,#528));
#105=EDGE_LOOP('',(#529,#530,#531,#532));
#106=EDGE_LOOP('',(#533,#534,#535,#536));
#107=EDGE_LOOP('',(#537,#538,#539,#540));
#108=EDGE_LOOP('',(#541,#542,#543,#544));
#109=EDGE_LOOP('',(#545,#546,#547,#548));
#110=EDGE_LOOP('',(#549,#550,#551,#552));
#111=EDGE_LOOP('',(#553,#554,#555,#556));
#112=EDGE_LOOP('',(#557,#558,#559,#560));
#113=EDGE_LOOP('',(#561,#562,#563,#564));
#114=EDGE_LOOP('',(#565,#566,#567,#568));
#115=EDGE_LOOP('',(#569,#570,#571,#572));
#116=EDGE_LOOP('',(#573,#574,#575,#576));
#117=EDGE_LOOP('',(#577,#578,#579,#580));
#118=EDGE_LOOP('',(#581,#582,#583,#584));
#119=EDGE_LOOP('',(#585,#586,#587,#588));
#120=EDGE_LOOP('',(#589,#590,#591,#592));
#121=EDGE_LOOP('',(#593,#594,#595,#596));
#122=EDGE_LOOP('',(#597,#598,#599,#600));
#123=EDGE_LOOP('',(#601,#602,#603,#604));
#124=EDGE_LOOP('',(#605,#606,#607,#608));
#125=EDGE_LOOP('',(#609,#610,#611,#612));
#126=EDGE_LOOP('',(#613,#614,#615,#616));
#127=EDGE_LOOP('',(#617,#618,#619,#620));
#128=EDGE_LOOP('',(#621,#622,#623,#624));
#129=EDGE_LOOP('',(#625,#626,#627,#628));
#130=EDGE_LOOP('',(#629,#630,#631,#632));
#131=EDGE_LOOP('',(#633,#634,#635,#636));
#132=EDGE_LOOP('',(#637,#638,#639,#640,#641,#642,#643,#644));
#133=EDGE_LOOP('',(#645,#646,#647,#648,#649,#650,#651,#652));
#134=EDGE_LOOP('',(#653));
#135=EDGE_LOOP('',(#654,#655,#656,#657));
#136=EDGE_LOOP('',(#658,#659,#660,#661));
#137=EDGE_LOOP('',(#662));
#138=EDGE_LOOP('',(#663,#664,#665,#666));
#139=EDGE_LOOP('',(#667));
#140=EDGE_LOOP('',(#668));
#141=LINE('',#963,#221);
#142=LINE('',#966,#222);
#143=LINE('',#969,#223);
#144=LINE('',#971,#224);
#145=LINE('',#972,#225);
#146=LINE('',#975,#226);
#147=LINE('',#979,#227);
#148=LINE('',#983,#228);
#149=LINE('',#991,#229);
#150=LINE('',#993,#230);
#151=LINE('',#995,#231);
#152=LINE('',#996,#232);
#153=LINE('',#1001,#233);
#154=LINE('',#1003,#234);
#155=LINE('',#1005,#235);
#156=LINE('',#1006,#236);
#157=LINE('',#1009,#237);
#158=LINE('',#1011,#238);
#159=LINE('',#1013,#239);
#160=LINE('',#1015,#240);
#161=LINE('',#1017,#241);
#162=LINE('',#1019,#242);
#163=LINE('',#1021,#243);
#164=LINE('',#1022,#244);
#165=LINE('',#1025,#245);
#166=LINE('',#1027,#246);
#167=LINE('',#1029,#247);
#168=LINE('',#1030,#248);
#169=LINE('',#1036,#249);
#170=LINE('',#1039,#250);
#171=LINE('',#1040,#251);
#172=LINE('',#1044,#252);
#173=LINE('',#1047,#253);
#174=LINE('',#1048,#254);
#175=LINE('',#1052,#255);
#176=LINE('',#1054,#256);
#177=LINE('',#1057,#257);
#178=LINE('',#1059,#258);
#179=LINE('',#1060,#259);
#180=LINE('',#1063,#260);
#181=LINE('',#1064,#261);
#182=LINE('',#1067,#262);
#183=LINE('',#1068,#263);
#184=LINE('',#1071,#264);
#185=LINE('',#1072,#265);
#186=LINE('',#1076,#266);
#187=LINE('',#1080,#267);
#188=LINE('',#1083,#268);
#189=LINE('',#1085,#269);
#190=LINE('',#1086,#270);
#191=LINE('',#1089,#271);
#192=LINE('',#1090,#272);
#193=LINE('',#1093,#273);
#194=LINE('',#1094,#274);
#195=LINE('',#1096,#275);
#196=LINE('',#1100,#276);
#197=LINE('',#1103,#277);
#198=LINE('',#1105,#278);
#199=LINE('',#1106,#279);
#200=LINE('',#1109,#280);
#201=LINE('',#1110,#281);
#202=LINE('',#1113,#282);
#203=LINE('',#1114,#283);
#204=LINE('',#1116,#284);
#205=LINE('',#1119,#285);
#206=LINE('',#1121,#286);
#207=LINE('',#1122,#287);
#208=LINE('',#1124,#288);
#209=LINE('',#1127,#289);
#210=LINE('',#1128,#290);
#211=LINE('',#1130,#291);
#212=LINE('',#1133,#292);
#213=LINE('',#1135,#293);
#214=LINE('',#1136,#294);
#215=LINE('',#1139,#295);
#216=LINE('',#1140,#296);
#217=LINE('',#1143,#297);
#218=LINE('',#1144,#298);
#219=LINE('',#1146,#299);
#220=LINE('',#1150,#300);
#221=VECTOR('',#781,10.);
#222=VECTOR('',#784,10.);
#223=VECTOR('',#787,10.);
#224=VECTOR('',#788,10.);
#225=VECTOR('',#789,10.);
#226=VECTOR('',#792,10.);
#227=VECTOR('',#795,10.);
#228=VECTOR('',#798,10.);
#229=VECTOR('',#805,10.);
#230=VECTOR('',#806,10.);
#231=VECTOR('',#807,10.);
#232=VECTOR('',#808,10.);
#233=VECTOR('',#811,10.);
#234=VECTOR('',#812,10.);
#235=VECTOR('',#813,10.);
#236=VECTOR('',#814,10.);
#237=VECTOR('',#815,10.);
#238=VECTOR('',#816,10.);
#239=VECTOR('',#817,10.);
#240=VECTOR('',#818,10.);
#241=VECTOR('',#819,10.);
#242=VECTOR('',#820,10.);
#243=VECTOR('',#821,10.);
#244=VECTOR('',#822,10.);
#245=VECTOR('',#823,10.);
#246=VECTOR('',#824,10.);
#247=VECTOR('',#825,10.);
#248=VECTOR('',#826,10.);
#249=VECTOR('',#833,10.);
#250=VECTOR('',#836,10.);
#251=VECTOR('',#837,10.);
#252=VECTOR('',#842,10.);
#253=VECTOR('',#845,10.);
#254=VECTOR('',#846,10.);
#255=VECTOR('',#851,10.);
#256=VECTOR('',#854,10.);
#257=VECTOR('',#857,10.);
#258=VECTOR('',#858,10.);
#259=VECTOR('',#859,10.);
#260=VECTOR('',#862,10.);
#261=VECTOR('',#863,10.);
#262=VECTOR('',#866,10.);
#263=VECTOR('',#867,10.);
#264=VECTOR('',#870,10.);
#265=VECTOR('',#871,10.);
#266=VECTOR('',#876,1.7);
#267=VECTOR('',#881,1.7);
#268=VECTOR('',#884,10.);
#269=VECTOR('',#885,10.);
#270=VECTOR('',#886,10.);
#271=VECTOR('',#889,10.);
#272=VECTOR('',#890,10.);
#273=VECTOR('',#893,10.);
#274=VECTOR('',#894,10.);
#275=VECTOR('',#897,10.);
#276=VECTOR('',#902,1.7);
#277=VECTOR('',#905,10.);
#278=VECTOR('',#906,10.);
#279=VECTOR('',#907,10.);
#280=VECTOR('',#910,10.);
#281=VECTOR('',#911,10.);
#282=VECTOR('',#914,10.);
#283=VECTOR('',#915,10.);
#284=VECTOR('',#918,10.);
#285=VECTOR('',#921,10.);
#286=VECTOR('',#922,10.);
#287=VECTOR('',#923,10.);
#288=VECTOR('',#926,10.);
#289=VECTOR('',#929,10.);
#290=VECTOR('',#930,10.);
#291=VECTOR('',#933,10.);
#292=VECTOR('',#936,10.);
#293=VECTOR('',#937,10.);
#294=VECTOR('',#938,10.);
#295=VECTOR('',#941,10.);
#296=VECTOR('',#942,10.);
#297=VECTOR('',#945,10.);
#298=VECTOR('',#946,10.);
#299=VECTOR('',#949,10.);
#300=VECTOR('',#954,1.7);
#301=CIRCLE('',#726,5.);
#302=CIRCLE('',#727,5.);
#303=CIRCLE('',#730,5.);
#304=CIRCLE('',#731,5.);
#305=CIRCLE('',#732,5.);
#306=CIRCLE('',#733,1.7);
#307=CIRCLE('',#734,1.7);
#308=CIRCLE('',#735,1.7);
#309=CIRCLE('',#736,1.7);
#310=CIRCLE('',#738,5.);
#311=CIRCLE('',#741,5.);
#312=CIRCLE('',#744,5.);
#313=CIRCLE('',#751,1.7);
#314=CIRCLE('',#753,1.7);
#315=CIRCLE('',#759,1.7);
#316=CIRCLE('',#773,1.7);
#317=VERTEX_POINT('',#959);
#318=VERTEX_POINT('',#960);
#319=VERTEX_POINT('',#962);
#320=VERTEX_POINT('',#964);
#321=VERTEX_POINT('',#968);
#322=VERTEX_POINT('',#970);
#323=VERTEX_POINT('',#974);
#324=VERTEX_POINT('',#976);
#325=VERTEX_POINT('',#978);
#326=VERTEX_POINT('',#980);
#327=VERTEX_POINT('',#982);
#328=VERTEX_POINT('',#985);
#329=VERTEX_POINT('',#987);
#330=VERTEX_POINT('',#989);
#331=VERTEX_POINT('',#990);
#332=VERTEX_POINT('',#992);
#333=VERTEX_POINT('',#994);
#334=VERTEX_POINT('',#997);
#335=VERTEX_POINT('',#999);
#336=VERTEX_POINT('',#1000);
#337=VERTEX_POINT('',#1002);
#338=VERTEX_POINT('',#1004);
#339=VERTEX_POINT('',#1007);
#340=VERTEX_POINT('',#1008);
#341=VERTEX_POINT('',#1010);
#342=VERTEX_POINT('',#1012);
#343=VERTEX_POINT('',#1014);
#344=VERTEX_POINT('',#1016);
#345=VERTEX_POINT('',#1018);
#346=VERTEX_POINT('',#1020);
#347=VERTEX_POINT('',#1023);
#348=VERTEX_POINT('',#1024);
#349=VERTEX_POINT('',#1026);
#350=VERTEX_POINT('',#1028);
#351=VERTEX_POINT('',#1031);
#352=VERTEX_POINT('',#1034);
#353=VERTEX_POINT('',#1038);
#354=VERTEX_POINT('',#1042);
#355=VERTEX_POINT('',#1046);
#356=VERTEX_POINT('',#1050);
#357=VERTEX_POINT('',#1056);
#358=VERTEX_POINT('',#1058);
#359=VERTEX_POINT('',#1062);
#360=VERTEX_POINT('',#1066);
#361=VERTEX_POINT('',#1070);
#362=VERTEX_POINT('',#1074);
#363=VERTEX_POINT('',#1078);
#364=VERTEX_POINT('',#1082);
#365=VERTEX_POINT('',#1084);
#366=VERTEX_POINT('',#1088);
#367=VERTEX_POINT('',#1092);
#368=VERTEX_POINT('',#1098);
#369=VERTEX_POINT('',#1102);
#370=VERTEX_POINT('',#1104);
#371=VERTEX_POINT('',#1108);
#372=VERTEX_POINT('',#1112);
#373=VERTEX_POINT('',#1118);
#374=VERTEX_POINT('',#1120);
#375=VERTEX_POINT('',#1126);
#376=VERTEX_POINT('',#1132);
#377=VERTEX_POINT('',#1134);
#378=VERTEX_POINT('',#1138);
#379=VERTEX_POINT('',#1142);
#380=VERTEX_POINT('',#1148);
#381=EDGE_CURVE('',#317,#318,#301,.T.);
#382=EDGE_CURVE('',#318,#319,#141,.T.);
#383=EDGE_CURVE('',#319,#320,#302,.T.);
#384=EDGE_CURVE('',#320,#317,#142,.T.);
#385=EDGE_CURVE('',#321,#320,#143,.T.);
#386=EDGE_CURVE('',#322,#321,#144,.T.);
#387=EDGE_CURVE('',#317,#322,#145,.T.);
#388=EDGE_CURVE('',#319,#323,#146,.T.);
#389=EDGE_CURVE('',#324,#323,#303,.T.);
#390=EDGE_CURVE('',#324,#325,#147,.T.);
#391=EDGE_CURVE('',#326,#325,#304,.T.);
#392=EDGE_CURVE('',#326,#327,#148,.T.);
#393=EDGE_CURVE('',#321,#327,#305,.T.);
#394=EDGE_CURVE('',#328,#328,#306,.T.);
#395=EDGE_CURVE('',#329,#329,#307,.T.);
#396=EDGE_CURVE('',#330,#331,#149,.T.);
#397=EDGE_CURVE('',#332,#330,#150,.T.);
#398=EDGE_CURVE('',#333,#332,#151,.T.);
#399=EDGE_CURVE('',#331,#333,#152,.T.);
#400=EDGE_CURVE('',#334,#334,#308,.T.);
#401=EDGE_CURVE('',#335,#336,#153,.T.);
#402=EDGE_CURVE('',#337,#335,#154,.T.);
#403=EDGE_CURVE('',#338,#337,#155,.T.);
#404=EDGE_CURVE('',#336,#338,#156,.T.);
#405=EDGE_CURVE('',#339,#340,#157,.T.);
#406=EDGE_CURVE('',#340,#341,#158,.T.);
#407=EDGE_CURVE('',#341,#342,#159,.T.);
#408=EDGE_CURVE('',#342,#343,#160,.T.);
#409=EDGE_CURVE('',#344,#343,#161,.T.);
#410=EDGE_CURVE('',#345,#344,#162,.T.);
#411=EDGE_CURVE('',#346,#345,#163,.T.);
#412=EDGE_CURVE('',#339,#346,#164,.T.);
#413=EDGE_CURVE('',#347,#348,#165,.T.);
#414=EDGE_CURVE('',#349,#347,#166,.T.);
#415=EDGE_CURVE('',#350,#349,#167,.T.);
#416=EDGE_CURVE('',#348,#350,#168,.T.);
#417=EDGE_CURVE('',#351,#351,#309,.T.);
#418=EDGE_CURVE('',#352,#322,#310,.T.);
#419=EDGE_CURVE('',#327,#352,#169,.T.);
#420=EDGE_CURVE('',#353,#326,#170,.T.);
#421=EDGE_CURVE('',#352,#353,#171,.T.);
#422=EDGE_CURVE('',#354,#353,#311,.T.);
#423=EDGE_CURVE('',#325,#354,#172,.T.);
#424=EDGE_CURVE('',#355,#324,#173,.T.);
#425=EDGE_CURVE('',#354,#355,#174,.T.);
#426=EDGE_CURVE('',#356,#355,#312,.T.);
#427=EDGE_CURVE('',#323,#356,#175,.T.);
#428=EDGE_CURVE('',#356,#318,#176,.T.);
#429=EDGE_CURVE('',#341,#357,#177,.T.);
#430=EDGE_CURVE('',#358,#357,#178,.T.);
#431=EDGE_CURVE('',#342,#358,#179,.T.);
#432=EDGE_CURVE('',#340,#359,#180,.T.);
#433=EDGE_CURVE('',#357,#359,#181,.T.);
#434=EDGE_CURVE('',#360,#339,#182,.T.);
#435=EDGE_CURVE('',#359,#360,#183,.T.);
#436=EDGE_CURVE('',#343,#361,#184,.T.);
#437=EDGE_CURVE('',#361,#358,#185,.T.);
#438=EDGE_CURVE('',#362,#362,#313,.T.);
#439=EDGE_CURVE('',#362,#328,#186,.T.);
#440=EDGE_CURVE('',#363,#363,#314,.T.);
#441=EDGE_CURVE('',#363,#329,#187,.T.);
#442=EDGE_CURVE('',#330,#364,#188,.T.);
#443=EDGE_CURVE('',#365,#364,#189,.T.);
#444=EDGE_CURVE('',#332,#365,#190,.T.);
#445=EDGE_CURVE('',#366,#365,#191,.T.);
#446=EDGE_CURVE('',#333,#366,#192,.T.);
#447=EDGE_CURVE('',#367,#366,#193,.T.);
#448=EDGE_CURVE('',#331,#367,#194,.T.);
#449=EDGE_CURVE('',#364,#367,#195,.T.);
#450=EDGE_CURVE('',#368,#368,#315,.T.);
#451=EDGE_CURVE('',#368,#334,#196,.T.);
#452=EDGE_CURVE('',#335,#369,#197,.T.);
#453=EDGE_CURVE('',#370,#369,#198,.T.);
#454=EDGE_CURVE('',#337,#370,#199,.T.);
#455=EDGE_CURVE('',#371,#370,#200,.T.);
#456=EDGE_CURVE('',#338,#371,#201,.T.);
#457=EDGE_CURVE('',#372,#371,#202,.T.);
#458=EDGE_CURVE('',#336,#372,#203,.T.);
#459=EDGE_CURVE('',#369,#372,#204,.T.);
#460=EDGE_CURVE('',#345,#373,#205,.T.);
#461=EDGE_CURVE('',#374,#373,#206,.T.);
#462=EDGE_CURVE('',#346,#374,#207,.T.);
#463=EDGE_CURVE('',#360,#374,#208,.T.);
#464=EDGE_CURVE('',#375,#361,#209,.T.);
#465=EDGE_CURVE('',#344,#375,#210,.T.);
#466=EDGE_CURVE('',#373,#375,#211,.T.);
#467=EDGE_CURVE('',#347,#376,#212,.T.);
#468=EDGE_CURVE('',#377,#376,#213,.T.);
#469=EDGE_CURVE('',#349,#377,#214,.T.);
#470=EDGE_CURVE('',#378,#377,#215,.T.);
#471=EDGE_CURVE('',#350,#378,#216,.T.);
#472=EDGE_CURVE('',#379,#378,#217,.T.);
#473=EDGE_CURVE('',#348,#379,#218,.T.);
#474=EDGE_CURVE('',#376,#379,#219,.T.);
#475=EDGE_CURVE('',#380,#380,#316,.T.);
#476=EDGE_CURVE('',#380,#351,#220,.T.);
#477=ORIENTED_EDGE('',*,*,#381,.T.);
#478=ORIENTED_EDGE('',*,*,#382,.T.);
#479=ORIENTED_EDGE('',*,*,#383,.T.);
#480=ORIENTED_EDGE('',*,*,#384,.T.);
#481=ORIENTED_EDGE('',*,*,#384,.F.);
#482=ORIENTED_EDGE('',*,*,#385,.F.);
#483=ORIENTED_EDGE('',*,*,#386,.F.);
#484=ORIENTED_EDGE('',*,*,#387,.F.);
#485=ORIENTED_EDGE('',*,*,#383,.F.);
#486=ORIENTED_EDGE('',*,*,#388,.T.);
#487=ORIENTED_EDGE('',*,*,#389,.F.);
#488=ORIENTED_EDGE('',*,*,#390,.T.);
#489=ORIENTED_EDGE('',*,*,#391,.F.);
#490=ORIENTED_EDGE('',*,*,#392,.T.);
#491=ORIENTED_EDGE('',*,*,#393,.F.);
#492=ORIENTED_EDGE('',*,*,#385,.T.);
#493=ORIENTED_EDGE('',*,*,#394,.F.);
#494=ORIENTED_EDGE('',*,*,#395,.F.);
#495=ORIENTED_EDGE('',*,*,#396,.F.);
#496=ORIENTED_EDGE('',*,*,#397,.F.);
#497=ORIENTED_EDGE('',*,*,#398,.F.);
#498=ORIENTED_EDGE('',*,*,#399,.F.);
#499=ORIENTED_EDGE('',*,*,#400,.F.);
#500=ORIENTED_EDGE('',*,*,#401,.F.);
#501=ORIENTED_EDGE('',*,*,#402,.F.);
#502=ORIENTED_EDGE('',*,*,#403,.F.);
#503=ORIENTED_EDGE('',*,*,#404,.F.);
#504=ORIENTED_EDGE('',*,*,#405,.T.);
#505=ORIENTED_EDGE('',*,*,#406,.T.);
#506=ORIENTED_EDGE('',*,*,#407,.T.);
#507=ORIENTED_EDGE('',*,*,#408,.T.);
#508=ORIENTED_EDGE('',*,*,#409,.F.);
#509=ORIENTED_EDGE('',*,*,#410,.F.);
#510=ORIENTED_EDGE('',*,*,#411,.F.);
#511=ORIENTED_EDGE('',*,*,#412,.F.);
#512=ORIENTED_EDGE('',*,*,#413,.F.);
#513=ORIENTED_EDGE('',*,*,#414,.F.);
#514=ORIENTED_EDGE('',*,*,#415,.F.);
#515=ORIENTED_EDGE('',*,*,#416,.F.);
#516=ORIENTED_EDGE('',*,*,#417,.F.);
#517=ORIENTED_EDGE('',*,*,#418,.T.);
#518=ORIENTED_EDGE('',*,*,#386,.T.);
#519=ORIENTED_EDGE('',*,*,#393,.T.);
#520=ORIENTED_EDGE('',*,*,#419,.T.);
#521=ORIENTED_EDGE('',*,*,#419,.F.);
#522=ORIENTED_EDGE('',*,*,#392,.F.);
#523=ORIENTED_EDGE('',*,*,#420,.F.);
#524=ORIENTED_EDGE('',*,*,#421,.F.);
#525=ORIENTED_EDGE('',*,*,#422,.T.);
#526=ORIENTED_EDGE('',*,*,#420,.T.);
#527=ORIENTED_EDGE('',*,*,#391,.T.);
#528=ORIENTED_EDGE('',*,*,#423,.T.);
#529=ORIENTED_EDGE('',*,*,#423,.F.);
#530=ORIENTED_EDGE('',*,*,#390,.F.);
#531=ORIENTED_EDGE('',*,*,#424,.F.);
#532=ORIENTED_EDGE('',*,*,#425,.F.);
#533=ORIENTED_EDGE('',*,*,#426,.T.);
#534=ORIENTED_EDGE('',*,*,#424,.T.);
#535=ORIENTED_EDGE('',*,*,#389,.T.);
#536=ORIENTED_EDGE('',*,*,#427,.T.);
#537=ORIENTED_EDGE('',*,*,#382,.F.);
#538=ORIENTED_EDGE('',*,*,#428,.F.);
#539=ORIENTED_EDGE('',*,*,#427,.F.);
#540=ORIENTED_EDGE('',*,*,#388,.F.);
#541=ORIENTED_EDGE('',*,*,#407,.F.);
#542=ORIENTED_EDGE('',*,*,#429,.T.);
#543=ORIENTED_EDGE('',*,*,#430,.F.);
#544=ORIENTED_EDGE('',*,*,#431,.F.);
#545=ORIENTED_EDGE('',*,*,#406,.F.);
#546=ORIENTED_EDGE('',*,*,#432,.T.);
#547=ORIENTED_EDGE('',*,*,#433,.F.);
#548=ORIENTED_EDGE('',*,*,#429,.F.);
#549=ORIENTED_EDGE('',*,*,#434,.F.);
#550=ORIENTED_EDGE('',*,*,#435,.F.);
#551=ORIENTED_EDGE('',*,*,#432,.F.);
#552=ORIENTED_EDGE('',*,*,#405,.F.);
#553=ORIENTED_EDGE('',*,*,#436,.F.);
#554=ORIENTED_EDGE('',*,*,#408,.F.);
#555=ORIENTED_EDGE('',*,*,#431,.T.);
#556=ORIENTED_EDGE('',*,*,#437,.F.);
#557=ORIENTED_EDGE('',*,*,#438,.F.);
#558=ORIENTED_EDGE('',*,*,#439,.T.);
#559=ORIENTED_EDGE('',*,*,#394,.T.);
#560=ORIENTED_EDGE('',*,*,#439,.F.);
#561=ORIENTED_EDGE('',*,*,#440,.F.);
#562=ORIENTED_EDGE('',*,*,#441,.T.);
#563=ORIENTED_EDGE('',*,*,#395,.T.);
#564=ORIENTED_EDGE('',*,*,#441,.F.);
#565=ORIENTED_EDGE('',*,*,#397,.T.);
#566=ORIENTED_EDGE('',*,*,#442,.T.);
#567=ORIENTED_EDGE('',*,*,#443,.F.);
#568=ORIENTED_EDGE('',*,*,#444,.F.);
#569=ORIENTED_EDGE('',*,*,#398,.T.);
#570=ORIENTED_EDGE('',*,*,#444,.T.);
#571=ORIENTED_EDGE('',*,*,#445,.F.);
#572=ORIENTED_EDGE('',*,*,#446,.F.);
#573=ORIENTED_EDGE('',*,*,#399,.T.);
#574=ORIENTED_EDGE('',*,*,#446,.T.);
#575=ORIENTED_EDGE('',*,*,#447,.F.);
#576=ORIENTED_EDGE('',*,*,#448,.F.);
#577=ORIENTED_EDGE('',*,*,#396,.T.);
#578=ORIENTED_EDGE('',*,*,#448,.T.);
#579=ORIENTED_EDGE('',*,*,#449,.F.);
#580=ORIENTED_EDGE('',*,*,#442,.F.);
#581=ORIENTED_EDGE('',*,*,#450,.F.);
#582=ORIENTED_EDGE('',*,*,#451,.T.);
#583=ORIENTED_EDGE('',*,*,#400,.T.);
#584=ORIENTED_EDGE('',*,*,#451,.F.);
#585=ORIENTED_EDGE('',*,*,#402,.T.);
#586=ORIENTED_EDGE('',*,*,#452,.T.);
#587=ORIENTED_EDGE('',*,*,#453,.F.);
#588=ORIENTED_EDGE('',*,*,#454,.F.);
#589=ORIENTED_EDGE('',*,*,#403,.T.);
#590=ORIENTED_EDGE('',*,*,#454,.T.);
#591=ORIENTED_EDGE('',*,*,#455,.F.);
#592=ORIENTED_EDGE('',*,*,#456,.F.);
#593=ORIENTED_EDGE('',*,*,#404,.T.);
#594=ORIENTED_EDGE('',*,*,#456,.T.);
#595=ORIENTED_EDGE('',*,*,#457,.F.);
#596=ORIENTED_EDGE('',*,*,#458,.F.);
#597=ORIENTED_EDGE('',*,*,#401,.T.);
#598=ORIENTED_EDGE('',*,*,#458,.T.);
#599=ORIENTED_EDGE('',*,*,#459,.F.);
#600=ORIENTED_EDGE('',*,*,#452,.F.);
#601=ORIENTED_EDGE('',*,*,#411,.T.);
#602=ORIENTED_EDGE('',*,*,#460,.T.);
#603=ORIENTED_EDGE('',*,*,#461,.F.);
#604=ORIENTED_EDGE('',*,*,#462,.F.);
#605=ORIENTED_EDGE('',*,*,#434,.T.);
#606=ORIENTED_EDGE('',*,*,#412,.T.);
#607=ORIENTED_EDGE('',*,*,#462,.T.);
#608=ORIENTED_EDGE('',*,*,#463,.F.);
#609=ORIENTED_EDGE('',*,*,#436,.T.);
#610=ORIENTED_EDGE('',*,*,#464,.F.);
#611=ORIENTED_EDGE('',*,*,#465,.F.);
#612=ORIENTED_EDGE('',*,*,#409,.T.);
#613=ORIENTED_EDGE('',*,*,#410,.T.);
#614=ORIENTED_EDGE('',*,*,#465,.T.);
#615=ORIENTED_EDGE('',*,*,#466,.F.);
#616=ORIENTED_EDGE('',*,*,#460,.F.);
#617=ORIENTED_EDGE('',*,*,#414,.T.);
#618=ORIENTED_EDGE('',*,*,#467,.T.);
#619=ORIENTED_EDGE('',*,*,#468,.F.);
#620=ORIENTED_EDGE('',*,*,#469,.F.);
#621=ORIENTED_EDGE('',*,*,#415,.T.);
#622=ORIENTED_EDGE('',*,*,#469,.T.);
#623=ORIENTED_EDGE('',*,*,#470,.F.);
#624=ORIENTED_EDGE('',*,*,#471,.F.);
#625=ORIENTED_EDGE('',*,*,#416,.T.);
#626=ORIENTED_EDGE('',*,*,#471,.T.);
#627=ORIENTED_EDGE('',*,*,#472,.F.);
#628=ORIENTED_EDGE('',*,*,#473,.F.);
#629=ORIENTED_EDGE('',*,*,#413,.T.);
#630=ORIENTED_EDGE('',*,*,#473,.T.);
#631=ORIENTED_EDGE('',*,*,#474,.F.);
#632=ORIENTED_EDGE('',*,*,#467,.F.);
#633=ORIENTED_EDGE('',*,*,#475,.F.);
#634=ORIENTED_EDGE('',*,*,#476,.T.);
#635=ORIENTED_EDGE('',*,*,#417,.T.);
#636=ORIENTED_EDGE('',*,*,#476,.F.);
#637=ORIENTED_EDGE('',*,*,#381,.F.);
#638=ORIENTED_EDGE('',*,*,#387,.T.);
#639=ORIENTED_EDGE('',*,*,#418,.F.);
#640=ORIENTED_EDGE('',*,*,#421,.T.);
#641=ORIENTED_EDGE('',*,*,#422,.F.);
#642=ORIENTED_EDGE('',*,*,#425,.T.);
#643=ORIENTED_EDGE('',*,*,#426,.F.);
#644=ORIENTED_EDGE('',*,*,#428,.T.);
#645=ORIENTED_EDGE('',*,*,#435,.T.);
#646=ORIENTED_EDGE('',*,*,#463,.T.);
#647=ORIENTED_EDGE('',*,*,#461,.T.);
#648=ORIENTED_EDGE('',*,*,#466,.T.);
#649=ORIENTED_EDGE('',*,*,#464,.T.);
#650=ORIENTED_EDGE('',*,*,#437,.T.);
#651=ORIENTED_EDGE('',*,*,#430,.T.);
#652=ORIENTED_EDGE('',*,*,#433,.T.);
#653=ORIENTED_EDGE('',*,*,#475,.T.);
#654=ORIENTED_EDGE('',*,*,#474,.T.);
#655=ORIENTED_EDGE('',*,*,#472,.T.);
#656=ORIENTED_EDGE('',*,*,#470,.T.);
#657=ORIENTED_EDGE('',*,*,#468,.T.);
#658=ORIENTED_EDGE('',*,*,#459,.T.);
#659=ORIENTED_EDGE('',*,*,#457,.T.);
#660=ORIENTED_EDGE('',*,*,#455,.T.);
#661=ORIENTED_EDGE('',*,*,#453,.T.);
#662=ORIENTED_EDGE('',*,*,#450,.T.);
#663=ORIENTED_EDGE('',*,*,#449,.T.);
#664=ORIENTED_EDGE('',*,*,#447,.T.);
#665=ORIENTED_EDGE('',*,*,#445,.T.);
#666=ORIENTED_EDGE('',*,*,#443,.T.);
#667=ORIENTED_EDGE('',*,*,#440,.T.);
#668=ORIENTED_EDGE('',*,*,#438,.T.);
#669=CYLINDRICAL_SURFACE('',#725,5.);
#670=CYLINDRICAL_SURFACE('',#737,5.);
#671=CYLINDRICAL_SURFACE('',#740,5.);
#672=CYLINDRICAL_SURFACE('',#743,5.);
#673=CYLINDRICAL_SURFACE('',#750,1.7);
#674=CYLINDRICAL_SURFACE('',#752,1.7);
#675=CYLINDRICAL_SURFACE('',#758,1.7);
#676=CYLINDRICAL_SURFACE('',#772,1.7);
#677=ADVANCED_FACE('',(#57),#669,.T.);
#678=ADVANCED_FACE('',(#58),#31,.T.);
#679=ADVANCED_FACE('',(#59,#15,#16,#17,#18,#19,#20,#21,#22),#32,.F.);
#680=ADVANCED_FACE('',(#60),#670,.T.);
#681=ADVANCED_FACE('',(#61),#33,.T.);
#682=ADVANCED_FACE('',(#62),#671,.T.);
#683=ADVANCED_FACE('',(#63),#34,.T.);
#684=ADVANCED_FACE('',(#64),#672,.T.);
#685=ADVANCED_FACE('',(#65),#35,.T.);
#686=ADVANCED_FACE('',(#66),#36,.F.);
#687=ADVANCED_FACE('',(#67),#37,.F.);
#688=ADVANCED_FACE('',(#68),#38,.F.);
#689=ADVANCED_FACE('',(#69),#39,.F.);
#690=ADVANCED_FACE('',(#70),#673,.F.);
#691=ADVANCED_FACE('',(#71),#674,.F.);
#692=ADVANCED_FACE('',(#72),#40,.T.);
#693=ADVANCED_FACE('',(#73),#41,.T.);
#694=ADVANCED_FACE('',(#74),#42,.T.);
#695=ADVANCED_FACE('',(#75),#43,.T.);
#696=ADVANCED_FACE('',(#76),#675,.F.);
#697=ADVANCED_FACE('',(#77),#44,.T.);
#698=ADVANCED_FACE('',(#78),#45,.T.);
#699=ADVANCED_FACE('',(#79),#46,.T.);
#700=ADVANCED_FACE('',(#80),#47,.T.);
#701=ADVANCED_FACE('',(#81),#48,.T.);
#702=ADVANCED_FACE('',(#82),#49,.T.);
#703=ADVANCED_FACE('',(#83),#50,.T.);
#704=ADVANCED_FACE('',(#84),#51,.T.);
#705=ADVANCED_FACE('',(#85),#52,.T.);
#706=ADVANCED_FACE('',(#86),#53,.T.);
#707=ADVANCED_FACE('',(#87),#54,.T.);
#708=ADVANCED_FACE('',(#88),#55,.T.);
#709=ADVANCED_FACE('',(#89),#676,.F.);
#710=ADVANCED_FACE('',(#90,#23,#24,#25,#26,#27,#28,#29,#30),#56,.T.);
#711=CLOSED_SHELL('',(#677,#678,#679,#680,#681,#682,#683,#684,#685,#686,
#687,#688,#689,#690,#691,#692,#693,#694,#695,#696,#697,#698,#699,#700,#701,
#702,#703,#704,#705,#706,#707,#708,#709,#710));
#712=DERIVED_UNIT_ELEMENT(#714,1.);
#713=DERIVED_UNIT_ELEMENT(#1157,-3.);
#714=(
MASS_UNIT()
NAMED_UNIT(*)
SI_UNIT(.KILO.,.GRAM.)
);
#715=DERIVED_UNIT((#712,#713));
#716=MEASURE_REPRESENTATION_ITEM('density measure',
POSITIVE_RATIO_MEASURE(7850.),#715);
#717=PROPERTY_DEFINITION_REPRESENTATION(#722,#719);
#718=PROPERTY_DEFINITION_REPRESENTATION(#723,#720);
#719=REPRESENTATION('material name',(#721),#1154);
#720=REPRESENTATION('density',(#716),#1154);
#721=DESCRIPTIVE_REPRESENTATION_ITEM('Steel','Steel');
#722=PROPERTY_DEFINITION('material property','material name',#1164);
#723=PROPERTY_DEFINITION('material property','density of part',#1164);
#724=AXIS2_PLACEMENT_3D('',#957,#775,#776);
#725=AXIS2_PLACEMENT_3D('',#958,#777,#778);
#726=AXIS2_PLACEMENT_3D('',#961,#779,#780);
#727=AXIS2_PLACEMENT_3D('',#965,#782,#783);
#728=AXIS2_PLACEMENT_3D('',#967,#785,#786);
#729=AXIS2_PLACEMENT_3D('',#973,#790,#791);
#730=AXIS2_PLACEMENT_3D('',#977,#793,#794);
#731=AXIS2_PLACEMENT_3D('',#981,#796,#797);
#732=AXIS2_PLACEMENT_3D('',#984,#799,#800);
#733=AXIS2_PLACEMENT_3D('',#986,#801,#802);
#734=AXIS2_PLACEMENT_3D('',#988,#803,#804);
#735=AXIS2_PLACEMENT_3D('',#998,#809,#810);
#736=AXIS2_PLACEMENT_3D('',#1032,#827,#828);
#737=AXIS2_PLACEMENT_3D('',#1033,#829,#830);
#738=AXIS2_PLACEMENT_3D('',#1035,#831,#832);
#739=AXIS2_PLACEMENT_3D('',#1037,#834,#835);
#740=AXIS2_PLACEMENT_3D('',#1041,#838,#839);
#741=AXIS2_PLACEMENT_3D('',#1043,#840,#841);
#742=AXIS2_PLACEMENT_3D('',#1045,#843,#844);
#743=AXIS2_PLACEMENT_3D('',#1049,#847,#848);
#744=AXIS2_PLACEMENT_3D('',#1051,#849,#850);
#745=AXIS2_PLACEMENT_3D('',#1053,#852,#853);
#746=AXIS2_PLACEMENT_3D('',#1055,#855,#856);
#747=AXIS2_PLACEMENT_3D('',#1061,#860,#861);
#748=AXIS2_PLACEMENT_3D('',#1065,#864,#865);
#749=AXIS2_PLACEMENT_3D('',#1069,#868,#869);
#750=AXIS2_PLACEMENT_3D('',#1073,#872,#873);
#751=AXIS2_PLACEMENT_3D('',#1075,#874,#875);
#752=AXIS2_PLACEMENT_3D('',#1077,#877,#878);
#753=AXIS2_PLACEMENT_3D('',#1079,#879,#880);
#754=AXIS2_PLACEMENT_3D('',#1081,#882,#883);
#755=AXIS2_PLACEMENT_3D('',#1087,#887,#888);
#756=AXIS2_PLACEMENT_3D('',#1091,#891,#892);
#757=AXIS2_PLACEMENT_3D('',#1095,#895,#896);
#758=AXIS2_PLACEMENT_3D('',#1097,#898,#899);
#759=AXIS2_PLACEMENT_3D('',#1099,#900,#901);
#760=AXIS2_PLACEMENT_3D('',#1101,#903,#904);
#761=AXIS2_PLACEMENT_3D('',#1107,#908,#909);
#762=AXIS2_PLACEMENT_3D('',#1111,#912,#913);
#763=AXIS2_PLACEMENT_3D('',#1115,#916,#917);
#764=AXIS2_PLACEMENT_3D('',#1117,#919,#920);
#765=AXIS2_PLACEMENT_3D('',#1123,#924,#925);
#766=AXIS2_PLACEMENT_3D('',#1125,#927,#928);
#767=AXIS2_PLACEMENT_3D('',#1129,#931,#932);
#768=AXIS2_PLACEMENT_3D('',#1131,#934,#935);
#769=AXIS2_PLACEMENT_3D('',#1137,#939,#940);
#770=AXIS2_PLACEMENT_3D('',#1141,#943,#944);
#771=AXIS2_PLACEMENT_3D('',#1145,#947,#948);
#772=AXIS2_PLACEMENT_3D('',#1147,#950,#951);
#773=AXIS2_PLACEMENT_3D('',#1149,#952,#953);
#774=AXIS2_PLACEMENT_3D('',#1151,#955,#956);
#775=DIRECTION('axis',(0.,0.,1.));
#776=DIRECTION('refdir',(1.,0.,0.));
#777=DIRECTION('center_axis',(0.,0.,1.));
#778=DIRECTION('ref_axis',(0.707106781186547,0.707106781186547,0.));
#779=DIRECTION('center_axis',(0.,0.,-1.));
#780=DIRECTION('ref_axis',(0.707106781186547,0.707106781186547,0.));
#781=DIRECTION('',(0.,0.,-1.));
#782=DIRECTION('center_axis',(0.,0.,1.));
#783=DIRECTION('ref_axis',(0.707106781186547,0.707106781186547,0.));
#784=DIRECTION('',(0.,0.,1.));
#785=DIRECTION('center_axis',(0.,1.,0.));
#786=DIRECTION('ref_axis',(-1.,0.,0.));
#787=DIRECTION('',(1.,0.,0.));
#788=DIRECTION('',(0.,0.,-1.));
#789=DIRECTION('',(-1.,0.,0.));
#790=DIRECTION('center_axis',(0.,0.,1.));
#791=DIRECTION('ref_axis',(1.,0.,0.));
#792=DIRECTION('',(0.,-1.,0.));
#793=DIRECTION('center_axis',(0.,0.,1.));
#794=DIRECTION('ref_axis',(0.707106781186547,-0.707106781186547,0.));
#795=DIRECTION('',(-1.,0.,0.));
#796=DIRECTION('center_axis',(0.,0.,1.));
#797=DIRECTION('ref_axis',(-0.707106781186547,-0.707106781186547,0.));
#798=DIRECTION('',(0.,1.,0.));
#799=DIRECTION('center_axis',(0.,0.,1.));
#800=DIRECTION('ref_axis',(-0.707106781186547,0.707106781186547,0.));
#801=DIRECTION('center_axis',(0.,0.,-1.));
#802=DIRECTION('ref_axis',(1.,0.,0.));
#803=DIRECTION('center_axis',(0.,0.,-1.));
#804=DIRECTION('ref_axis',(1.,0.,0.));
#805=DIRECTION('',(-1.,0.,0.));
#806=DIRECTION('',(0.,-1.,0.));
#807=DIRECTION('',(1.,0.,0.));
#808=DIRECTION('',(0.,1.,0.));
#809=DIRECTION('center_axis',(0.,0.,-1.));
#810=DIRECTION('ref_axis',(1.,0.,0.));
#811=DIRECTION('',(-1.,0.,0.));
#812=DIRECTION('',(0.,-1.,0.));
#813=DIRECTION('',(1.,0.,0.));
#814=DIRECTION('',(0.,1.,0.));
#815=DIRECTION('',(0.,1.,0.));
#816=DIRECTION('',(-1.,0.,0.));
#817=DIRECTION('',(0.,-1.,0.));
#818=DIRECTION('',(1.,0.,0.));
#819=DIRECTION('',(0.,1.,0.));
#820=DIRECTION('',(-1.,0.,0.));
#821=DIRECTION('',(0.,-1.,0.));
#822=DIRECTION('',(1.,0.,0.));
#823=DIRECTION('',(-1.,0.,0.));
#824=DIRECTION('',(0.,-1.,0.));
#825=DIRECTION('',(1.,0.,0.));
#826=DIRECTION('',(0.,1.,0.));
#827=DIRECTION('center_axis',(0.,0.,-1.));
#828=DIRECTION('ref_axis',(1.,0.,0.));
#829=DIRECTION('center_axis',(0.,0.,1.));
#830=DIRECTION('ref_axis',(-0.707106781186547,0.707106781186547,0.));
#831=DIRECTION('center_axis',(0.,0.,-1.));
#832=DIRECTION('ref_axis',(-0.707106781186547,0.707106781186547,0.));
#833=DIRECTION('',(0.,0.,1.));
#834=DIRECTION('center_axis',(-1.,0.,0.));
#835=DIRECTION('ref_axis',(0.,-1.,0.));
#836=DIRECTION('',(0.,0.,-1.));
#837=DIRECTION('',(0.,-1.,0.));
#838=DIRECTION('center_axis',(0.,0.,1.));
#839=DIRECTION('ref_axis',(-0.707106781186547,-0.707106781186547,0.));
#840=DIRECTION('center_axis',(0.,0.,-1.));
#841=DIRECTION('ref_axis',(-0.707106781186547,-0.707106781186547,0.));
#842=DIRECTION('',(0.,0.,1.));
#843=DIRECTION('center_axis',(0.,-1.,0.));
#844=DIRECTION('ref_axis',(1.,0.,0.));
#845=DIRECTION('',(0.,0.,-1.));
#846=DIRECTION('',(1.,0.,0.));
#847=DIRECTION('center_axis',(0.,0.,1.));
#848=DIRECTION('ref_axis',(0.707106781186547,-0.707106781186547,0.));
#849=DIRECTION('center_axis',(0.,0.,-1.));
#850=DIRECTION('ref_axis',(0.707106781186547,-0.707106781186547,0.));
#851=DIRECTION('',(0.,0.,1.));
#852=DIRECTION('center_axis',(1.,0.,0.));
#853=DIRECTION('ref_axis',(0.,1.,0.));
#854=DIRECTION('',(0.,1.,0.));
#855=DIRECTION('center_axis',(-1.,0.,0.));
#856=DIRECTION('ref_axis',(0.,-1.,0.));
#857=DIRECTION('',(0.,0.,1.));
#858=DIRECTION('',(0.,1.,0.));
#859=DIRECTION('',(0.,0.,1.));
#860=DIRECTION('center_axis',(0.,1.,0.));
#861=DIRECTION('ref_axis',(-1.,0.,0.));
#862=DIRECTION('',(0.,0.,1.));
#863=DIRECTION('',(1.,0.,0.));
#864=DIRECTION('center_axis',(1.,0.,0.));
#865=DIRECTION('ref_axis',(0.,1.,0.));
#866=DIRECTION('',(0.,0.,-1.));
#867=DIRECTION('',(0.,-1.,0.));
#868=DIRECTION('center_axis',(0.,-1.,0.));
#869=DIRECTION('ref_axis',(1.,0.,0.));
#870=DIRECTION('',(0.,0.,1.));
#871=DIRECTION('',(-1.,0.,0.));
#872=DIRECTION('center_axis',(0.,0.,1.));
#873=DIRECTION('ref_axis',(1.,0.,0.));
#874=DIRECTION('center_axis',(0.,0.,-1.));
#875=DIRECTION('ref_axis',(1.,0.,0.));
#876=DIRECTION('',(0.,0.,-1.));
#877=DIRECTION('center_axis',(0.,0.,1.));
#878=DIRECTION('ref_axis',(1.,0.,0.));
#879=DIRECTION('center_axis',(0.,0.,-1.));
#880=DIRECTION('ref_axis',(1.,0.,0.));
#881=DIRECTION('',(0.,0.,-1.));
#882=DIRECTION('center_axis',(-1.,0.,0.));
#883=DIRECTION('ref_axis',(0.,-1.,0.));
#884=DIRECTION('',(0.,0.,1.));
#885=DIRECTION('',(0.,-1.,0.));
#886=DIRECTION('',(0.,0.,1.));
#887=DIRECTION('center_axis',(0.,-1.,0.));
#888=DIRECTION('ref_axis',(1.,0.,0.));
#889=DIRECTION('',(1.,0.,0.));
#890=DIRECTION('',(0.,0.,1.));
#891=DIRECTION('center_axis',(1.,0.,0.));
#892=DIRECTION('ref_axis',(0.,1.,0.));
#893=DIRECTION('',(0.,1.,0.));
#894=DIRECTION('',(0.,0.,1.));
#895=DIRECTION('center_axis',(0.,1.,0.));
#896=DIRECTION('ref_axis',(-1.,0.,0.));
#897=DIRECTION('',(-1.,0.,0.));
#898=DIRECTION('center_axis',(0.,0.,1.));
#899=DIRECTION('ref_axis',(1.,0.,0.));
#900=DIRECTION('center_axis',(0.,0.,-1.));
#901=DIRECTION('ref_axis',(1.,0.,0.));
#902=DIRECTION('',(0.,0.,-1.));
#903=DIRECTION('center_axis',(-1.,0.,0.));
#904=DIRECTION('ref_axis',(0.,-1.,0.));
#905=DIRECTION('',(0.,0.,1.));
#906=DIRECTION('',(0.,-1.,0.));
#907=DIRECTION('',(0.,0.,1.));
#908=DIRECTION('center_axis',(0.,-1.,0.));
#909=DIRECTION('ref_axis',(1.,0.,0.));
#910=DIRECTION('',(1.,0.,0.));
#911=DIRECTION('',(0.,0.,1.));
#912=DIRECTION('center_axis',(1.,0.,0.));
#913=DIRECTION('ref_axis',(0.,1.,0.));
#914=DIRECTION('',(0.,1.,0.));
#915=DIRECTION('',(0.,0.,1.));
#916=DIRECTION('center_axis',(0.,1.,0.));
#917=DIRECTION('ref_axis',(-1.,0.,0.));
#918=DIRECTION('',(-1.,0.,0.));
#919=DIRECTION('center_axis',(-1.,0.,0.));
#920=DIRECTION('ref_axis',(0.,-1.,0.));
#921=DIRECTION('',(0.,0.,1.));
#922=DIRECTION('',(0.,-1.,0.));
#923=DIRECTION('',(0.,0.,1.));
#924=DIRECTION('center_axis',(0.,-1.,0.));
#925=DIRECTION('ref_axis',(1.,0.,0.));
#926=DIRECTION('',(1.,0.,0.));
#927=DIRECTION('center_axis',(1.,0.,0.));
#928=DIRECTION('ref_axis',(0.,1.,0.));
#929=DIRECTION('',(0.,1.,0.));
#930=DIRECTION('',(0.,0.,1.));
#931=DIRECTION('center_axis',(0.,1.,0.));
#932=DIRECTION('ref_axis',(-1.,0.,0.));
#933=DIRECTION('',(-1.,0.,0.));
#934=DIRECTION('center_axis',(-1.,0.,0.));
#935=DIRECTION('ref_axis',(0.,-1.,0.));
#936=DIRECTION('',(0.,0.,1.));
#937=DIRECTION('',(0.,-1.,0.));
#938=DIRECTION('',(0.,0.,1.));
#939=DIRECTION('center_axis',(0.,-1.,0.));
#940=DIRECTION('ref_axis',(1.,0.,0.));
#941=DIRECTION('',(1.,0.,0.));
#942=DIRECTION('',(0.,0.,1.));
#943=DIRECTION('center_axis',(1.,0.,0.));
#944=DIRECTION('ref_axis',(0.,1.,0.));
#945=DIRECTION('',(0.,1.,0.));
#946=DIRECTION('',(0.,0.,1.));
#947=DIRECTION('center_axis',(0.,1.,0.));
#948=DIRECTION('ref_axis',(-1.,0.,0.));
#949=DIRECTION('',(-1.,0.,0.));
#950=DIRECTION('center_axis',(0.,0.,1.));
#951=DIRECTION('ref_axis',(1.,0.,0.));
#952=DIRECTION('center_axis',(0.,0.,-1.));
#953=DIRECTION('ref_axis',(1.,0.,0.));
#954=DIRECTION('',(0.,0.,-1.));
#955=DIRECTION('center_axis',(0.,0.,1.));
#956=DIRECTION('ref_axis',(1.,0.,0.));
#957=CARTESIAN_POINT('',(0.,0.,0.));
#958=CARTESIAN_POINT('Origin',(73.0969569903027,25.9472117915897,0.));
#959=CARTESIAN_POINT('',(73.0969569903027,30.9472117915897,1.15));
#960=CARTESIAN_POINT('',(78.0969569903027,25.9472117915897,1.15));
#961=CARTESIAN_POINT('Origin',(73.0969569903027,25.9472117915897,1.15));
#962=CARTESIAN_POINT('',(78.0969569903027,25.9472117915897,0.));
#963=CARTESIAN_POINT('',(78.0969569903027,25.9472117915897,0.));
#964=CARTESIAN_POINT('',(73.0969569903027,30.9472117915897,0.));
#965=CARTESIAN_POINT('Origin',(73.0969569903027,25.9472117915897,0.));
#966=CARTESIAN_POINT('',(73.0969569903027,30.9472117915897,0.));
#967=CARTESIAN_POINT('Origin',(78.0969569903027,30.9472117915897,0.));
#968=CARTESIAN_POINT('',(-36.9030430096973,30.9472117915897,0.));
#969=CARTESIAN_POINT('',(-41.9030430096973,30.9472117915897,0.));
#970=CARTESIAN_POINT('',(-36.9030430096973,30.9472117915897,1.15));
#971=CARTESIAN_POINT('',(-36.9030430096973,30.9472117915897,0.));
#972=CARTESIAN_POINT('',(-41.9030430096973,30.9472117915897,1.15));
#973=CARTESIAN_POINT('Origin',(18.0969569903027,-11.5027882084103,0.));
#974=CARTESIAN_POINT('',(78.0969569903027,-48.9527882084103,0.));
#975=CARTESIAN_POINT('',(78.0969569903027,30.9472117915897,0.));
#976=CARTESIAN_POINT('',(73.0969569903027,-53.9527882084103,0.));
#977=CARTESIAN_POINT('Origin',(73.0969569903027,-48.9527882084103,0.));
#978=CARTESIAN_POINT('',(-36.9030430096973,-53.9527882084103,0.));
#979=CARTESIAN_POINT('',(78.0969569903027,-53.9527882084103,0.));
#980=CARTESIAN_POINT('',(-41.9030430096973,-48.9527882084103,0.));
#981=CARTESIAN_POINT('Origin',(-36.9030430096973,-48.9527882084103,0.));
#982=CARTESIAN_POINT('',(-41.9030430096973,25.9472117915897,0.));
#983=CARTESIAN_POINT('',(-41.9030430096973,-53.9527882084103,0.));
#984=CARTESIAN_POINT('Origin',(-36.9030430096973,25.9472117915897,0.));
#985=CARTESIAN_POINT('',(-38.6030430096973,-48.9527882084103,0.));
#986=CARTESIAN_POINT('Origin',(-36.9030430096973,-48.9527882084103,0.));
#987=CARTESIAN_POINT('',(71.3969569903027,25.9472117915897,0.));
#988=CARTESIAN_POINT('Origin',(73.0969569903027,25.9472117915897,0.));
#989=CARTESIAN_POINT('',(6.96795699030268,-42.6797882084103,0.));
#990=CARTESIAN_POINT('',(-30.6760430096973,-42.6797882084103,0.));
#991=CARTESIAN_POINT('',(6.96795699030268,-42.6797882084103,0.));
#992=CARTESIAN_POINT('',(6.96795699030268,-24.3797882084103,0.));
#993=CARTESIAN_POINT('',(6.96795699030268,-24.3797882084103,0.));
#994=CARTESIAN_POINT('',(-30.6760430096973,-24.3797882084103,0.));
#995=CARTESIAN_POINT('',(-30.6760430096973,-24.3797882084103,0.));
#996=CARTESIAN_POINT('',(-30.6760430096973,-42.6797882084103,0.));
#997=CARTESIAN_POINT('',(-38.6030430096973,25.9472117915897,0.));
#998=CARTESIAN_POINT('Origin',(-36.9030430096973,25.9472117915897,0.));
#999=CARTESIAN_POINT('',(65.8899569903027,-43.7837882084103,0.));
#1000=CARTESIAN_POINT('',(27.3039569903027,-43.7837882084103,0.));
#1001=CARTESIAN_POINT('',(65.8899569903027,-43.7837882084103,0.));
#1002=CARTESIAN_POINT('',(65.8899569903027,-25.4837882084103,0.));
#1003=CARTESIAN_POINT('',(65.8899569903027,-25.4837882084103,0.));
#1004=CARTESIAN_POINT('',(27.3039569903027,-25.4837882084103,0.));
#1005=CARTESIAN_POINT('',(27.3039569903027,-25.4837882084103,0.));
#1006=CARTESIAN_POINT('',(27.3039569903027,-43.7837882084103,0.));
#1007=CARTESIAN_POINT('',(38.8269569903027,-0.104788208410316,0.));
#1008=CARTESIAN_POINT('',(38.8269569903027,18.9252117915897,0.));
#1009=CARTESIAN_POINT('',(38.8269569903027,-6.78878820841032,0.));
#1010=CARTESIAN_POINT('',(21.3269569903027,18.9252117915897,0.));
#1011=CARTESIAN_POINT('',(28.4619569903027,18.9252117915897,0.));
#1012=CARTESIAN_POINT('',(21.3269569903027,-2.07478820841032,0.));
#1013=CARTESIAN_POINT('',(21.3269569903027,3.71121179158968,0.));
#1014=CARTESIAN_POINT('',(29.1769569903027,-2.07478820841032,0.));
#1015=CARTESIAN_POINT('',(19.7119569903027,-2.07478820841032,0.));
#1016=CARTESIAN_POINT('',(29.1769569903027,-12.1047882084103,0.));
#1017=CARTESIAN_POINT('',(29.1769569903027,-12.1047882084103,0.));
#1018=CARTESIAN_POINT('',(64.5369569903027,-12.1047882084103,0.));
#1019=CARTESIAN_POINT('',(64.5369569903027,-12.1047882084103,0.));
#1020=CARTESIAN_POINT('',(64.5369569903027,-0.104788208410316,0.));
#1021=CARTESIAN_POINT('',(64.5369569903027,-0.104788208410316,0.));
#1022=CARTESIAN_POINT('',(29.1769569903027,-0.104788208410316,0.));
#1023=CARTESIAN_POINT('',(-10.6800430096973,3.41421179158968,0.));
#1024=CARTESIAN_POINT('',(-29.0000430096973,3.41421179158968,0.));
#1025=CARTESIAN_POINT('',(-10.6800430096973,3.41421179158968,0.));
#1026=CARTESIAN_POINT('',(-10.6800430096973,21.7142117915897,0.));
#1027=CARTESIAN_POINT('',(-10.6800430096973,21.7142117915897,0.));
#1028=CARTESIAN_POINT('',(-29.0000430096973,21.7142117915897,0.));
#1029=CARTESIAN_POINT('',(-29.0000430096973,21.7142117915897,0.));
#1030=CARTESIAN_POINT('',(-29.0000430096973,3.41421179158968,0.));
#1031=CARTESIAN_POINT('',(71.3969569903027,-48.9527882084103,0.));
#1032=CARTESIAN_POINT('Origin',(73.0969569903027,-48.9527882084103,0.));
#1033=CARTESIAN_POINT('Origin',(-36.9030430096973,25.9472117915897,0.));
#1034=CARTESIAN_POINT('',(-41.9030430096973,25.9472117915897,1.15));
#1035=CARTESIAN_POINT('Origin',(-36.9030430096973,25.9472117915897,1.15));
#1036=CARTESIAN_POINT('',(-41.9030430096973,25.9472117915897,0.));
#1037=CARTESIAN_POINT('Origin',(-41.9030430096973,30.9472117915897,0.));
#1038=CARTESIAN_POINT('',(-41.9030430096973,-48.9527882084103,1.15));
#1039=CARTESIAN_POINT('',(-41.9030430096973,-48.9527882084103,0.));
#1040=CARTESIAN_POINT('',(-41.9030430096973,-53.9527882084103,1.15));
#1041=CARTESIAN_POINT('Origin',(-36.9030430096973,-48.9527882084103,0.));
#1042=CARTESIAN_POINT('',(-36.9030430096973,-53.9527882084103,1.15));
#1043=CARTESIAN_POINT('Origin',(-36.9030430096973,-48.9527882084103,1.15));
#1044=CARTESIAN_POINT('',(-36.9030430096973,-53.9527882084103,0.));
#1045=CARTESIAN_POINT('Origin',(-41.9030430096973,-53.9527882084103,0.));
#1046=CARTESIAN_POINT('',(73.0969569903027,-53.9527882084103,1.15));
#1047=CARTESIAN_POINT('',(73.0969569903027,-53.9527882084103,0.));
#1048=CARTESIAN_POINT('',(78.0969569903027,-53.9527882084103,1.15));
#1049=CARTESIAN_POINT('Origin',(73.0969569903027,-48.9527882084103,0.));
#1050=CARTESIAN_POINT('',(78.0969569903027,-48.9527882084103,1.15));
#1051=CARTESIAN_POINT('Origin',(73.0969569903027,-48.9527882084103,1.15));
#1052=CARTESIAN_POINT('',(78.0969569903027,-48.9527882084103,0.));
#1053=CARTESIAN_POINT('Origin',(78.0969569903027,-53.9527882084103,0.));
#1054=CARTESIAN_POINT('',(78.0969569903027,30.9472117915897,1.15));
#1055=CARTESIAN_POINT('Origin',(21.3269569903027,18.9252117915897,0.));
#1056=CARTESIAN_POINT('',(21.3269569903027,18.9252117915897,1.15));
#1057=CARTESIAN_POINT('',(21.3269569903027,18.9252117915897,0.));
#1058=CARTESIAN_POINT('',(21.3269569903027,-2.07478820841032,1.15));
#1059=CARTESIAN_POINT('',(21.3269569903027,3.71121179158968,1.15));
#1060=CARTESIAN_POINT('',(21.3269569903027,-2.07478820841032,0.));
#1061=CARTESIAN_POINT('Origin',(38.8269569903027,18.9252117915897,0.));
#1062=CARTESIAN_POINT('',(38.8269569903027,18.9252117915897,1.15));
#1063=CARTESIAN_POINT('',(38.8269569903027,18.9252117915897,0.));
#1064=CARTESIAN_POINT('',(28.4619569903027,18.9252117915897,1.15));
#1065=CARTESIAN_POINT('Origin',(38.8269569903027,-2.07478820841032,0.));
#1066=CARTESIAN_POINT('',(38.8269569903027,-0.104788208410316,1.15));
#1067=CARTESIAN_POINT('',(38.8269569903027,-0.104788208410316,0.));
#1068=CARTESIAN_POINT('',(38.8269569903027,-6.78878820841032,1.15));
#1069=CARTESIAN_POINT('Origin',(21.3269569903027,-2.07478820841032,0.));
#1070=CARTESIAN_POINT('',(29.1769569903027,-2.07478820841032,1.15));
#1071=CARTESIAN_POINT('',(29.1769569903027,-2.07478820841032,0.));
#1072=CARTESIAN_POINT('',(19.7119569903027,-2.07478820841032,1.15));
#1073=CARTESIAN_POINT('Origin',(-36.9030430096973,-48.9527882084103,0.));
#1074=CARTESIAN_POINT('',(-38.6030430096973,-48.9527882084103,1.15));
#1075=CARTESIAN_POINT('Origin',(-36.9030430096973,-48.9527882084103,1.15));
#1076=CARTESIAN_POINT('',(-38.6030430096973,-48.9527882084103,0.));
#1077=CARTESIAN_POINT('Origin',(73.0969569903027,25.9472117915897,0.));
#1078=CARTESIAN_POINT('',(71.3969569903027,25.9472117915897,1.15));
#1079=CARTESIAN_POINT('Origin',(73.0969569903027,25.9472117915897,1.15));
#1080=CARTESIAN_POINT('',(71.3969569903027,25.9472117915897,0.));
#1081=CARTESIAN_POINT('Origin',(6.96795699030268,-24.3797882084103,0.));
#1082=CARTESIAN_POINT('',(6.96795699030268,-42.6797882084103,1.15));
#1083=CARTESIAN_POINT('',(6.96795699030268,-42.6797882084103,0.));
#1084=CARTESIAN_POINT('',(6.96795699030268,-24.3797882084103,1.15));
#1085=CARTESIAN_POINT('',(6.96795699030268,-24.3797882084103,1.15));
#1086=CARTESIAN_POINT('',(6.96795699030268,-24.3797882084103,0.));
#1087=CARTESIAN_POINT('Origin',(-30.6760430096973,-24.3797882084103,0.));
#1088=CARTESIAN_POINT('',(-30.6760430096973,-24.3797882084103,1.15));
#1089=CARTESIAN_POINT('',(-30.6760430096973,-24.3797882084103,1.15));
#1090=CARTESIAN_POINT('',(-30.6760430096973,-24.3797882084103,0.));
#1091=CARTESIAN_POINT('Origin',(-30.6760430096973,-42.6797882084103,0.));
#1092=CARTESIAN_POINT('',(-30.6760430096973,-42.6797882084103,1.15));
#1093=CARTESIAN_POINT('',(-30.6760430096973,-42.6797882084103,1.15));
#1094=CARTESIAN_POINT('',(-30.6760430096973,-42.6797882084103,0.));
#1095=CARTESIAN_POINT('Origin',(6.96795699030268,-42.6797882084103,0.));
#1096=CARTESIAN_POINT('',(6.96795699030268,-42.6797882084103,1.15));
#1097=CARTESIAN_POINT('Origin',(-36.9030430096973,25.9472117915897,0.));
#1098=CARTESIAN_POINT('',(-38.6030430096973,25.9472117915897,1.15));
#1099=CARTESIAN_POINT('Origin',(-36.9030430096973,25.9472117915897,1.15));
#1100=CARTESIAN_POINT('',(-38.6030430096973,25.9472117915897,0.));
#1101=CARTESIAN_POINT('Origin',(65.8899569903027,-25.4837882084103,0.));
#1102=CARTESIAN_POINT('',(65.8899569903027,-43.7837882084103,1.15));
#1103=CARTESIAN_POINT('',(65.8899569903027,-43.7837882084103,0.));
#1104=CARTESIAN_POINT('',(65.8899569903027,-25.4837882084103,1.15));
#1105=CARTESIAN_POINT('',(65.8899569903027,-25.4837882084103,1.15));
#1106=CARTESIAN_POINT('',(65.8899569903027,-25.4837882084103,0.));
#1107=CARTESIAN_POINT('Origin',(27.3039569903027,-25.4837882084103,0.));
#1108=CARTESIAN_POINT('',(27.3039569903027,-25.4837882084103,1.15));
#1109=CARTESIAN_POINT('',(27.3039569903027,-25.4837882084103,1.15));
#1110=CARTESIAN_POINT('',(27.3039569903027,-25.4837882084103,0.));
#1111=CARTESIAN_POINT('Origin',(27.3039569903027,-43.7837882084103,0.));
#1112=CARTESIAN_POINT('',(27.3039569903027,-43.7837882084103,1.15));
#1113=CARTESIAN_POINT('',(27.3039569903027,-43.7837882084103,1.15));
#1114=CARTESIAN_POINT('',(27.3039569903027,-43.7837882084103,0.));
#1115=CARTESIAN_POINT('Origin',(65.8899569903027,-43.7837882084103,0.));
#1116=CARTESIAN_POINT('',(65.8899569903027,-43.7837882084103,1.15));
#1117=CARTESIAN_POINT('Origin',(64.5369569903027,-0.104788208410316,0.));
#1118=CARTESIAN_POINT('',(64.5369569903027,-12.1047882084103,1.15));
#1119=CARTESIAN_POINT('',(64.5369569903027,-12.1047882084103,0.));
#1120=CARTESIAN_POINT('',(64.5369569903027,-0.104788208410316,1.15));
#1121=CARTESIAN_POINT('',(64.5369569903027,-0.104788208410316,1.15));
#1122=CARTESIAN_POINT('',(64.5369569903027,-0.104788208410316,0.));
#1123=CARTESIAN_POINT('Origin',(29.1769569903027,-0.104788208410316,0.));
#1124=CARTESIAN_POINT('',(29.1769569903027,-0.104788208410316,1.15));
#1125=CARTESIAN_POINT('Origin',(29.1769569903027,-12.1047882084103,0.));
#1126=CARTESIAN_POINT('',(29.1769569903027,-12.1047882084103,1.15));
#1127=CARTESIAN_POINT('',(29.1769569903027,-12.1047882084103,1.15));
#1128=CARTESIAN_POINT('',(29.1769569903027,-12.1047882084103,0.));
#1129=CARTESIAN_POINT('Origin',(64.5369569903027,-12.1047882084103,0.));
#1130=CARTESIAN_POINT('',(64.5369569903027,-12.1047882084103,1.15));
#1131=CARTESIAN_POINT('Origin',(-10.6800430096973,21.7142117915897,0.));
#1132=CARTESIAN_POINT('',(-10.6800430096973,3.41421179158968,1.15));
#1133=CARTESIAN_POINT('',(-10.6800430096973,3.41421179158968,0.));
#1134=CARTESIAN_POINT('',(-10.6800430096973,21.7142117915897,1.15));
#1135=CARTESIAN_POINT('',(-10.6800430096973,21.7142117915897,1.15));
#1136=CARTESIAN_POINT('',(-10.6800430096973,21.7142117915897,0.));
#1137=CARTESIAN_POINT('Origin',(-29.0000430096973,21.7142117915897,0.));
#1138=CARTESIAN_POINT('',(-29.0000430096973,21.7142117915897,1.15));
#1139=CARTESIAN_POINT('',(-29.0000430096973,21.7142117915897,1.15));
#1140=CARTESIAN_POINT('',(-29.0000430096973,21.7142117915897,0.));
#1141=CARTESIAN_POINT('Origin',(-29.0000430096973,3.41421179158968,0.));
#1142=CARTESIAN_POINT('',(-29.0000430096973,3.41421179158968,1.15));
#1143=CARTESIAN_POINT('',(-29.0000430096973,3.41421179158968,1.15));
#1144=CARTESIAN_POINT('',(-29.0000430096973,3.41421179158968,0.));
#1145=CARTESIAN_POINT('Origin',(-10.6800430096973,3.41421179158968,0.));
#1146=CARTESIAN_POINT('',(-10.6800430096973,3.41421179158968,1.15));
#1147=CARTESIAN_POINT('Origin',(73.0969569903027,-48.9527882084103,0.));
#1148=CARTESIAN_POINT('',(71.3969569903027,-48.9527882084103,1.15));
#1149=CARTESIAN_POINT('Origin',(73.0969569903027,-48.9527882084103,1.15));
#1150=CARTESIAN_POINT('',(71.3969569903027,-48.9527882084103,0.));
#1151=CARTESIAN_POINT('Origin',(18.0969569903027,-11.5027882084103,1.15));
#1152=UNCERTAINTY_MEASURE_WITH_UNIT(LENGTH_MEASURE(0.01),#1156,
'DISTANCE_ACCURACY_VALUE',
'Maximum model space distance between geometric entities at asserted c
onnectivities');
#1153=UNCERTAINTY_MEASURE_WITH_UNIT(LENGTH_MEASURE(0.01),#1156,
'DISTANCE_ACCURACY_VALUE',
'Maximum model space distance between geometric entities at asserted c
onnectivities');
#1154=(
GEOMETRIC_REPRESENTATION_CONTEXT(3)
GLOBAL_UNCERTAINTY_ASSIGNED_CONTEXT((#1152))
GLOBAL_UNIT_ASSIGNED_CONTEXT((#1156,#1158,#1159))
REPRESENTATION_CONTEXT('','3D')
);
#1155=(
GEOMETRIC_REPRESENTATION_CONTEXT(3)
GLOBAL_UNCERTAINTY_ASSIGNED_CONTEXT((#1153))
GLOBAL_UNIT_ASSIGNED_CONTEXT((#1156,#1158,#1159))
REPRESENTATION_CONTEXT('','3D')
);
#1156=(
LENGTH_UNIT()
NAMED_UNIT(*)
SI_UNIT(.MILLI.,.METRE.)
);
#1157=(
LENGTH_UNIT()
NAMED_UNIT(*)
SI_UNIT($,.METRE.)
);
#1158=(
NAMED_UNIT(*)
PLANE_ANGLE_UNIT()
SI_UNIT($,.RADIAN.)
);
#1159=(
NAMED_UNIT(*)
SI_UNIT($,.STERADIAN.)
SOLID_ANGLE_UNIT()
);
#1160=SHAPE_DEFINITION_REPRESENTATION(#1161,#1162);
#1161=PRODUCT_DEFINITION_SHAPE('',$,#1164);
#1162=SHAPE_REPRESENTATION('',(#724),#1154);
#1163=PRODUCT_DEFINITION_CONTEXT('part definition',#1168,'design');
#1164=PRODUCT_DEFINITION('2025-12-13-17-10-09-843','topyeiii2',#1165,#1163);
#1165=PRODUCT_DEFINITION_FORMATION('',$,#1170);
#1166=PRODUCT_RELATED_PRODUCT_CATEGORY('topyeiii2','topyeiii2',(#1170));
#1167=APPLICATION_PROTOCOL_DEFINITION('international standard',
'automotive_design',2009,#1168);
#1168=APPLICATION_CONTEXT(
'Core Data for Automotive Mechanical Design Process');
#1169=PRODUCT_CONTEXT('part definition',#1168,'mechanical');
#1170=PRODUCT('2025-12-13-17-10-09-843','topyeiii2',$,(#1169));
#1171=PRESENTATION_STYLE_ASSIGNMENT((#1172));
#1172=SURFACE_STYLE_USAGE(.BOTH.,#1173);
#1173=SURFACE_SIDE_STYLE('',(#1174));
#1174=SURFACE_STYLE_FILL_AREA(#1175);
#1175=FILL_AREA_STYLE('Steel - Satin',(#1176));
#1176=FILL_AREA_STYLE_COLOUR('Steel - Satin',#1177);
#1177=COLOUR_RGB('Steel - Satin',0.627450980392157,0.627450980392157,0.627450980392157);
ENDSEC;
END-ISO-10303-21;
